<svg width="121" height="75" viewBox="0 0 121 75" fill="none" xmlns="http://www.w3.org/2000/svg">
<path d="M12.8559 56.1527C13.7192 56.1527 14.6107 55.7411 15.5302 54.9179C16.0643 56.2009 16.2972 57.7388 16.2329 59.5297C16.1607 61.676 15.5623 63.475 14.442 64.9266C13.2876 66.3802 11.6533 67.0909 9.5391 67.0568C5.66615 67.0568 3.61825 64.7941 3.39137 60.2686C3.31909 59.2426 3.33515 58.1223 3.43956 56.9036C3.53593 55.709 3.65037 54.685 3.77887 53.8297C3.91539 52.9664 4.11817 51.824 4.3832 50.4045C4.61007 49.0151 4.77471 47.9751 4.88112 47.2805C5.53364 42.3273 5.84484 38.5749 5.81271 36.025C5.71634 30.9334 4.44544 26.6689 2 23.2316C3.15446 22.1113 4.75463 21.5491 6.80454 21.5491C8.45893 21.5491 9.71779 21.9808 10.5811 22.8441C11.4364 23.7336 11.8319 24.9864 11.7677 26.6087H11.9123C12.6712 25.1571 13.926 23.9504 15.6768 22.9907C17.3954 22.031 19.1141 21.5491 20.8327 21.5491C23.8744 21.5491 26.1572 22.4587 27.6831 24.2737C29.1669 26.0967 29.8615 28.5461 29.7652 31.62C29.6587 33.959 29.0303 36.2077 27.8759 38.362C26.7214 40.5083 25.2337 42.243 23.4106 43.5661C20.0778 46.0417 15.9137 47.3989 10.9204 47.6318H10.5329C10.5329 47.8266 10.5129 48.1358 10.4727 48.5634C10.4064 48.9991 10.3743 49.3665 10.3743 49.6657C10.3422 49.9568 10.3422 50.5169 10.3743 51.3482C10.4807 52.7676 10.7297 53.9261 11.1252 54.8216C11.4886 55.7411 12.0648 56.1848 12.8559 56.1527ZM18.6543 41.2291C19.6461 40.5043 20.5054 39.5948 21.2322 38.5066C21.957 37.4164 22.3566 36.4246 22.4288 35.5291C22.6236 33.3828 21.6318 32.3107 19.4534 32.3107C17.8311 32.3107 16.4096 32.9873 15.1929 34.3425C13.9341 35.6977 13.0225 37.1875 12.4564 38.8098C11.8681 40.422 11.4726 42.0563 11.2698 43.7107C14.0465 43.5822 16.508 42.755 18.6543 41.2291ZM32.2889 43.7589C32.1925 39.7253 30.9015 35.9889 28.416 32.5516C30.4016 31.4293 32.568 30.8691 34.915 30.8691C38.1917 30.8691 39.8461 32.0436 39.8782 34.3907C39.8782 34.6899 39.8621 35.0372 39.83 35.4327C39.7577 35.8283 39.6895 36.1756 39.6232 36.4727C39.559 36.804 39.4626 37.2517 39.3341 37.8159C39.1634 38.3741 39.047 38.8499 38.9827 39.2454C37.7239 44.6985 37.0774 48.7019 37.0453 51.2518C37.0453 54.9139 37.8725 56.745 39.5268 56.745C40.35 56.745 41.2415 56.3173 42.2012 55.462C42.7352 56.7129 42.9681 58.032 42.9039 59.4213C42.8316 61.6078 42.2333 63.4268 41.113 64.8784C39.9585 66.3641 38.3242 67.0909 36.21 67.0568C32.1765 67.0247 30.1266 64.778 30.0623 60.3168C30.0302 58.7989 30.4418 56.1888 31.2971 52.4865C32.056 49.2179 32.3873 46.3087 32.2889 43.7589ZM28.175 21.9005C28.175 20.1176 28.7673 18.6981 29.9539 17.6401C31.1485 16.6161 32.7848 16.1041 34.8669 16.1041C36.981 16.1041 38.6153 16.6161 39.7698 17.6401C40.9303 18.666 41.5125 20.0855 41.5125 21.9005C41.5125 23.6834 40.9303 25.0888 39.7698 26.1128C38.6153 27.1367 36.981 27.6507 34.8669 27.6507C32.7848 27.6507 31.1485 27.1367 29.9539 26.1128C28.7673 25.0888 28.175 23.6834 28.175 21.9005ZM42.7533 61.9511C45.9878 59.7707 48.7806 56.8634 51.1276 53.2234C53.4767 49.5934 55.7555 45.3329 57.966 40.4421C57.0384 39.91 55.7996 39.645 54.2497 39.645C52.5632 39.7414 51.3906 40.5685 50.7281 42.1246C50.0675 43.7147 49.8688 45.3169 50.1358 46.9311C48.4172 46.5356 47.0459 45.6281 46.0199 44.2066C44.9959 42.8192 44.484 41.2492 44.484 39.4984C44.484 37.2477 45.1124 35.2982 46.3713 33.6539C47.59 32.0316 49.2765 31.2205 51.4308 31.2205C52.8181 31.2205 54.2376 31.5678 55.6912 32.2605C57.1107 32.9552 58.3495 33.8948 59.4056 35.0814C60.6644 32.5074 62.3349 31.2205 64.4169 31.2205C65.5392 31.2205 66.6114 31.6843 67.6373 32.6118C68.6613 33.5635 69.4724 34.8344 70.0687 36.4246C68.2778 37.2477 66.6555 38.5026 65.2039 40.1891C63.7523 41.8756 62.6139 43.546 61.7908 45.2004C60.9274 46.8849 59.8493 49.0152 58.5583 51.5891C57.2352 54.2052 56.0466 56.3555 54.9885 58.04C55.7555 58.566 56.8316 58.827 58.221 58.827C59.9717 58.827 61.2266 58.2187 61.9835 57C63.1058 55.4098 63.3528 53.906 62.7224 52.4865C64.6438 52.8158 66.1958 53.5266 67.3823 54.6148C68.577 55.705 69.2696 56.9277 69.4644 58.2829C69.633 59.6381 69.5045 60.9773 69.0769 62.3004C68.6412 63.6235 67.798 64.7298 66.5471 65.6172C65.2561 66.5448 63.7523 67.0247 62.0337 67.0568C58.4659 66.9925 55.5246 65.6534 53.2097 63.0393C51.9187 65.7176 50.3325 67.0568 48.4533 67.0568C47.2908 67.0568 46.1986 66.597 45.1726 65.6775C44.1487 64.782 43.3416 63.5392 42.7533 61.9511ZM68.4806 61.9511C71.7171 59.7707 74.5078 56.8634 76.8569 53.2234C79.204 49.5934 81.4848 45.3329 83.6953 40.4421C82.7677 39.91 81.5289 39.645 79.979 39.645C78.2925 39.7414 77.1179 40.5685 76.4574 42.1246C75.7948 43.7147 75.5981 45.3169 75.8631 46.9311C74.1444 46.5356 72.7732 45.6281 71.7492 44.2066C70.7232 42.8192 70.2113 41.2492 70.2113 39.4984C70.2113 37.2477 70.8417 35.2982 72.1006 33.6539C73.3193 32.0316 75.0038 31.2205 77.1581 31.2205C78.5474 31.2205 79.9669 31.5678 81.4185 32.2605C82.84 32.9552 84.0788 33.8948 85.1349 35.0814C86.3937 32.5074 88.0642 31.2205 90.1462 31.2205C91.2665 31.2205 92.3407 31.6843 93.3646 32.6118C94.3906 33.5635 95.1997 34.8344 95.798 36.4246C94.0071 37.2477 92.3848 38.5026 90.9332 40.1891C89.4796 41.8756 88.3432 43.546 87.5201 45.2004C86.6567 46.8849 85.5786 49.0152 84.2876 51.5891C82.9645 54.2052 81.7739 56.3555 80.7178 58.04C81.4848 58.566 82.5609 58.827 83.9483 58.827C85.699 58.827 86.9539 58.2187 87.7128 57C88.8351 55.4098 89.0801 53.906 88.4517 52.4865C90.3711 52.8158 91.9251 53.5266 93.1117 54.6148C94.3043 55.705 94.9989 56.9277 95.1917 58.2829C95.3623 59.6381 95.2338 60.9773 94.8062 62.3004C94.3705 63.6235 93.5273 64.7298 92.2764 65.6172C90.9854 66.5448 89.4796 67.0247 87.761 67.0568C84.1952 66.9925 81.2539 65.6534 78.939 63.0393C77.648 65.7176 76.0618 67.0568 74.1826 67.0568C73.0201 67.0568 71.9259 66.597 70.9019 65.6775C69.878 64.782 69.0709 63.5392 68.4806 61.9511ZM109.133 61.5636C107.843 65.1615 105.825 66.9925 103.082 67.0568C100.038 67.1632 97.7757 65.1494 96.2919 61.0175C94.7982 56.8875 94.4348 51.9926 95.2017 46.3368C95.9606 40.5204 97.6632 36.2077 100.309 33.3989C101.859 31.7445 103.626 30.8852 105.61 30.8209H106.058C106.947 30.8209 107.752 30.9213 108.479 31.1241C109.206 31.3168 109.834 31.5638 110.368 31.8609C110.9 32.1601 111.364 32.5918 111.76 33.1559C112.155 33.7462 112.484 34.2903 112.751 34.7902C113.01 35.3163 113.239 36.025 113.442 36.9205C113.603 37.8079 113.735 38.5829 113.842 39.2454C113.906 39.9381 113.97 40.8496 114.034 41.98C114.067 43.1023 114.083 44.058 114.083 44.8491C114.083 45.6482 114.099 46.7042 114.131 48.0193C114.131 49.3424 114.131 50.4206 114.131 51.2518C114.195 54.9139 115.022 56.745 116.612 56.745C117.444 56.745 118.335 56.3173 119.287 55.462C119.821 56.7129 120.054 58.032 119.989 59.4213C119.917 61.7041 119.421 63.5553 118.5 64.9768C117.572 66.3962 116.068 67.0909 113.986 67.0568C112.727 67.0568 111.671 66.5609 110.816 65.569C109.953 64.5772 109.455 63.2421 109.326 61.5636H109.133ZM107.148 41.2291C105.728 41.2291 104.307 41.9559 102.887 43.4075C101.46 44.9013 100.35 46.6038 99.5585 48.5152C98.7695 50.4688 98.4221 52.1553 98.5185 53.5747C98.647 55.6568 99.5224 56.7129 101.145 56.745C102.307 56.745 103.598 56.0523 105.018 54.665C106.437 53.3077 107.608 51.6433 108.527 49.6657C109.455 47.68 109.87 45.9252 109.774 44.4013C109.637 42.2872 108.762 41.2291 107.148 41.2291Z" stroke="#710000" stroke-width="1.67317"/>
<path d="M12.8579 56.1527C13.7132 56.1527 14.6047 55.7411 15.5322 54.9159C16.0623 56.2069 16.2952 57.7428 16.2309 59.5257C16.1607 61.674 15.5644 63.475 14.44 64.9306C13.2836 66.3822 11.6472 67.0909 9.53308 67.0588C5.66615 67.0588 3.61825 64.7981 3.38936 60.2726C3.31909 59.2446 3.33515 58.1203 3.43755 56.8996C3.53794 55.711 3.65439 54.687 3.78288 53.8237C3.91539 52.9684 4.11416 51.828 4.37718 50.4025C4.61208 49.0172 4.77873 47.9751 4.8751 47.2784C5.53364 42.3213 5.84685 38.5708 5.81473 36.027C5.71835 30.9354 4.44544 26.6709 2 23.2336C3.15646 22.1093 4.75865 21.5471 6.81057 21.5471C8.45893 21.5471 9.71378 21.9788 10.5771 22.8401C11.4324 23.7356 11.8299 24.9904 11.7657 26.6066H11.9183C12.6772 25.151 13.9341 23.9444 15.6848 22.9847C17.4035 22.027 19.1221 21.5471 20.8407 21.5471C23.8805 21.5471 26.1613 22.4586 27.6831 24.2777C29.1649 26.0927 29.8595 28.5401 29.7632 31.618C29.6608 33.963 29.0324 36.2097 27.8759 38.356C26.7194 40.5043 25.2337 42.239 23.4187 43.5601C20.0778 46.0397 15.9117 47.3949 10.9224 47.6238H10.5289C10.5289 47.8225 10.5129 48.1378 10.4807 48.5714C10.4105 49.0011 10.3763 49.3645 10.3763 49.6637C10.3442 49.9588 10.3442 50.519 10.3763 51.3421C10.4767 52.7676 10.7257 53.9261 11.1232 54.8196C11.4866 55.7411 12.0649 56.1848 12.8579 56.1527ZM18.6563 41.2311C19.6461 40.5043 20.5054 39.5968 21.2342 38.5086C21.9611 37.4164 22.3586 36.4245 22.4228 35.5291C22.6196 33.3828 21.6298 32.3087 19.4514 32.3087C17.8291 32.3087 16.4076 32.9873 15.1869 34.3405C13.928 35.6957 13.0205 37.1835 12.4644 38.8057C11.8641 40.424 11.4645 42.0583 11.2678 43.7127C14.0465 43.5802 16.508 42.753 18.6563 41.2311Z" fill="#E12C2C"/>
<path d="M32.2867 43.7608C32.1903 39.7292 30.9013 35.9948 28.4238 32.5575C30.4034 31.4332 32.5698 30.871 34.9208 30.871C38.1915 30.871 39.8438 32.0436 39.876 34.3886C39.876 34.6898 39.8599 35.0371 39.8278 35.4326C39.7575 35.8302 39.6913 36.1775 39.627 36.4767C39.5628 36.8039 39.4624 37.2477 39.3299 37.8098C39.1632 38.372 39.0488 38.8518 38.9845 39.2474C37.7257 44.7044 37.0812 48.7039 37.0491 51.2457C37.0491 54.9138 37.8763 56.7469 39.5306 56.7469C40.3538 56.7469 41.2453 56.3193 42.205 55.462C42.735 56.7148 42.9639 58.0379 42.8956 59.4293C42.8314 61.6097 42.2371 63.4267 41.1127 64.8823C39.9563 66.3661 38.32 67.0909 36.2058 67.0587C32.1742 67.0266 30.1263 64.7819 30.0621 60.3207C30.0239 58.8008 30.4355 56.1888 31.2989 52.4825C32.0578 49.2118 32.3871 46.3046 32.2867 43.7608ZM28.1748 21.9004C28.1748 20.1135 28.7691 18.692 29.9577 17.6359C31.1463 16.608 32.7806 16.094 34.8646 16.094C36.9788 16.094 38.6151 16.608 39.7716 17.6359C40.932 18.6599 41.5143 20.0814 41.5143 21.9004C41.5143 23.6833 40.932 25.0867 39.7716 26.1087C38.6151 27.1366 36.9788 27.6506 34.8646 27.6506C32.7806 27.6506 31.1463 27.1366 29.9577 26.1087C28.7691 25.0867 28.1748 23.6833 28.1748 21.9004Z" fill="#E12C2C"/>
<path d="M42.7456 61.9511C45.9841 59.7727 48.7789 56.8654 51.13 53.2294C53.475 49.5954 55.7558 45.3309 57.9724 40.436C57.0448 39.912 55.806 39.649 54.254 39.649C52.5675 39.7454 51.391 40.5705 50.7284 42.1225C50.0699 43.7127 49.8711 45.3169 50.1341 46.9331C48.4155 46.5376 47.0442 45.6281 46.0223 44.2026C44.9983 42.8172 44.4883 41.2472 44.4883 39.4964C44.4883 37.2477 45.1148 35.3002 46.3676 33.6498C47.5923 32.0276 49.2788 31.2164 51.4271 31.2164C52.8125 31.2164 54.234 31.5658 55.6916 32.2605C57.109 32.9511 58.3498 33.8948 59.4099 35.0874C60.6628 32.5074 62.3292 31.2164 64.4132 31.2164C65.5376 31.2164 66.6097 31.6802 67.6337 32.6058C68.6616 33.5655 69.4728 34.8364 70.0671 36.4205C68.2782 37.2517 66.6579 38.5066 65.2083 40.1871C63.7507 41.8736 62.6103 43.544 61.7871 45.1984C60.9238 46.8849 59.8516 49.0171 58.5667 51.5911C57.2436 54.2052 56.053 56.3535 54.9929 58.04C55.7518 58.57 56.826 58.835 58.2133 58.835C59.9681 58.835 61.2269 58.2227 61.9879 56.9959C63.1062 55.4118 63.3532 53.908 62.7267 52.4825C64.6421 52.8158 66.1961 53.5266 67.3847 54.6188C68.5773 55.711 69.274 56.9357 69.4728 58.2889C69.6374 59.6442 69.5049 60.9833 69.0712 62.3044C68.6416 63.6275 67.8023 64.7338 66.5495 65.6212C65.2585 66.5468 63.7547 67.0267 62.0361 67.0588C58.4643 66.9945 55.5229 65.6574 53.21 63.0433C51.919 65.7216 50.3309 67.0588 48.4476 67.0588C47.2912 67.0588 46.2009 66.595 45.179 65.6694C44.155 64.782 43.3439 63.5412 42.7456 61.9511Z" fill="#E12C2C"/>
<path d="M68.4741 61.9511C71.7126 59.7727 74.5074 56.8654 76.8585 53.2294C79.2035 49.5954 81.4843 45.3309 83.7009 40.436C82.7733 39.912 81.5345 39.649 79.9825 39.649C78.296 39.7454 77.1195 40.5705 76.4569 42.1225C75.7984 43.7127 75.5996 45.3169 75.8626 46.9331C74.144 46.5376 72.7727 45.6281 71.7508 44.2026C70.7268 42.8172 70.2168 41.2472 70.2168 39.4964C70.2168 37.2477 70.8433 35.3002 72.0961 33.6498C73.3208 32.0276 75.0073 31.2164 77.1556 31.2164C78.541 31.2164 79.9625 31.5658 81.4201 32.2605C82.8376 32.9511 84.0784 33.8948 85.1384 35.0874C86.3913 32.5074 88.0577 31.2164 90.1418 31.2164C91.2661 31.2164 92.3382 31.6802 93.3622 32.6058C94.3902 33.5655 95.2013 34.8364 95.7956 36.4205C94.0067 37.2517 92.3864 38.5066 90.9368 40.1871C89.4792 41.8736 88.3388 43.544 87.5156 45.1984C86.6523 46.8849 85.5802 49.0171 84.2952 51.5911C82.9721 54.2052 81.7815 56.3535 80.7214 58.04C81.4803 58.57 82.5545 58.835 83.9418 58.835C85.6966 58.835 86.9555 58.2227 87.7164 56.9959C88.8347 55.4118 89.0817 53.908 88.4552 52.4825C90.3706 52.8158 91.9246 53.5266 93.1132 54.6188C94.3058 55.711 95.0025 56.9357 95.2013 58.2889C95.3659 59.6442 95.2334 60.9833 94.7997 62.3044C94.3701 63.6275 93.5308 64.7338 92.278 65.6212C90.987 66.5468 89.4832 67.0267 87.7646 67.0588C84.1928 66.9945 81.2514 65.6574 78.9385 63.0433C77.6475 65.7216 76.0594 67.0588 74.1761 67.0588C73.0197 67.0588 71.9295 66.595 70.9075 65.6694C69.8836 64.782 69.0724 63.5412 68.4741 61.9511Z" fill="#E12C2C"/>
<path d="M109.132 61.5575C107.841 65.1614 105.824 66.9945 103.077 67.0588C100.041 67.1591 97.7786 65.1454 96.2909 61.0114C94.8011 56.8835 94.4377 51.9926 95.1987 46.3388C95.9576 40.5203 97.6602 36.2077 100.306 33.4008C101.858 31.7464 103.625 30.8871 105.607 30.8229H106.057C106.95 30.8229 107.759 30.9233 108.482 31.12C109.209 31.3188 109.839 31.5657 110.369 31.8589C110.899 32.16 111.361 32.5897 111.759 33.1519C112.154 33.7462 112.483 34.2923 112.746 34.7902C113.013 35.3162 113.246 36.025 113.445 36.9184C113.606 37.8139 113.736 38.5889 113.839 39.2474C113.903 39.9441 113.969 40.8536 114.039 41.9779C114.072 43.1023 114.088 44.062 114.088 44.853C114.088 45.6461 114.104 46.7042 114.136 48.0253C114.136 49.3484 114.136 50.4225 114.136 51.2457C114.2 54.9139 115.027 56.7469 116.617 56.7469C117.441 56.7469 118.332 56.3193 119.292 55.462C119.822 56.7148 120.051 58.0379 119.982 59.4293C119.918 61.7101 119.422 63.5612 118.497 64.9787C117.569 66.3982 116.067 67.0909 113.991 67.0588C112.732 67.0588 111.672 66.5628 110.811 65.573C109.954 64.5832 109.458 63.244 109.325 61.5575H109.132ZM107.149 41.2311C105.723 41.2311 104.302 41.9599 102.884 43.4155C101.459 44.9052 100.351 46.6078 99.5595 48.5232C98.7664 50.4727 98.4211 52.1572 98.5235 53.5747C98.652 55.6587 99.5274 56.7148 101.15 56.7469C102.306 56.7469 103.593 56.0543 105.013 54.6669C106.436 53.3137 107.609 51.6453 108.53 49.6636C109.456 47.6779 109.871 45.9252 109.775 44.4033C109.64 42.2891 108.765 41.2311 107.149 41.2311Z" fill="#E12C2C"/>
<mask id="mask0_5003_2395" style="mask-type:luminance" maskUnits="userSpaceOnUse" x="43" y="0" width="60" height="36">
<path d="M43.5166 0.514038H102.111V35.9789H43.5166V0.514038Z" fill="white"/>
</mask>
<g mask="url(#mask0_5003_2395)">
<mask id="mask1_5003_2395" style="mask-type:luminance" maskUnits="userSpaceOnUse" x="33" y="-11" width="76" height="73">
<path d="M54.4989 -10.0587L108.869 12.7955L88.2532 61.8368L33.8833 38.9806L54.4989 -10.0587Z" fill="white"/>
</mask>
<g mask="url(#mask1_5003_2395)">
<mask id="mask2_5003_2395" style="mask-type:luminance" maskUnits="userSpaceOnUse" x="33" y="-11" width="76" height="73">
<path d="M54.4989 -10.0587L108.869 12.7955L88.2532 61.8368L33.8833 38.9806L54.4989 -10.0587Z" fill="white"/>
</mask>
<g mask="url(#mask2_5003_2395)">
<mask id="mask3_5003_2395" style="mask-type:luminance" maskUnits="userSpaceOnUse" x="33" y="-11" width="76" height="73">
<path d="M54.4989 -10.0587L108.869 12.7955L88.2532 61.8368L33.8833 38.9806L54.4989 -10.0587Z" fill="white"/>
</mask>
<g mask="url(#mask3_5003_2395)">
<path d="M43.9681 35.0876C43.936 35.0736 43.9099 35.0535 43.8898 35.0254C43.8537 34.9752 43.8456 34.911 43.8677 34.8547C44.1307 34.1621 44.4761 33.5156 44.8114 32.9193C44.9639 32.6462 45.1065 32.3531 45.243 32.07C45.5924 31.3492 45.9538 30.6043 46.5621 30.0241C47.1122 29.5001 47.7688 29.3575 48.4072 29.6266C49.0055 29.8775 49.5356 30.4798 49.7906 31.1946C50.0616 31.9596 49.9351 32.7948 49.8147 33.6039C49.7725 33.887 49.7324 34.152 49.7083 34.411C49.6822 34.7021 49.6822 34.9832 49.7063 35.2503C49.7123 35.3025 49.6942 35.3527 49.6581 35.3908C49.6219 35.429 49.5717 35.451 49.5195 35.449C48.4675 35.4109 47.4997 35.3466 46.5601 35.2563L46.3011 35.2302C45.5582 35.1579 44.7913 35.0816 44.0444 35.1017C44.0163 35.1017 43.9922 35.0977 43.9681 35.0876ZM55.33 35.4852C55.3019 35.4751 55.2778 35.4571 55.2597 35.435C55.2256 35.3928 55.2095 35.3386 55.2195 35.2864C55.3259 34.7001 55.3681 34.0757 55.4103 33.4734C55.4906 32.3029 55.5749 31.0902 56.111 30.0221C56.119 30.004 56.1311 29.99 56.1431 29.9759C56.8559 29.2491 58.438 29.1969 59.4117 29.6065C59.8715 29.7992 60.1907 30.0843 60.3373 30.4276C60.6605 31.1926 60.2128 32.2667 59.8534 33.1301C59.735 33.4152 59.6245 33.6842 59.5563 33.9031C59.4197 34.3448 59.3495 34.8206 59.3435 35.3587C59.3414 35.4591 59.2591 35.5374 59.1587 35.5374L58.5805 35.5313C57.5204 35.5173 56.4603 35.5052 55.3982 35.5012C55.3741 35.4992 55.35 35.4952 55.33 35.4852ZM65.0535 35.5595C65.0294 35.5494 65.0073 35.5334 64.9872 35.5133C64.9531 35.4731 64.937 35.4209 64.9431 35.3687C65.0595 34.401 65.2884 33.5638 65.6398 32.8088C66.4127 31.1484 68.0671 30.1847 70.6953 29.8635C71.3598 29.7811 71.8718 29.737 72.3577 29.7149C72.3657 29.7149 72.3738 29.7129 72.3838 29.7129C73.482 29.6868 74.5963 29.7209 75.6745 29.753C76.3893 29.7751 77.1281 29.7992 77.8509 29.8032C78.9752 29.8113 80.1156 29.7289 81.2179 29.6506C82.0812 29.5884 82.9747 29.5242 83.8581 29.5021C85.639 29.4599 87.4499 29.5201 89.2007 29.5804C89.6625 29.5964 90.1243 29.6125 90.5861 29.6266C91.62 29.6567 92.6942 29.6426 93.4632 29.0925C93.4993 29.0664 93.5455 29.0543 93.5896 29.0584C93.6318 29.0644 93.67 29.0503 93.7101 29.0182C93.8567 28.9018 93.941 28.7612 93.9812 28.5705C93.9852 28.5584 93.9872 28.5484 93.9932 28.5384C94.0052 28.5082 94.0093 28.4781 94.0073 28.454C94.0052 28.444 94.0052 28.4339 94.0073 28.4239C94.0293 28.1549 93.9751 27.8417 93.9229 27.5385C93.8507 27.1249 93.7784 26.6972 93.8828 26.3338C93.8948 26.2977 93.8968 26.2676 93.8908 26.2355C93.8848 26.1953 93.8908 26.1552 93.9089 26.121C94.0073 25.9363 94.0936 25.7837 94.1277 25.7195C94.5714 24.9063 95.2661 24.2578 96.0873 23.8884C96.9346 23.5069 98.0147 23.5551 99.129 24.0229C99.904 24.3482 100.619 24.8581 101.095 25.4243C101.301 25.6733 101.448 25.9504 101.528 26.2475C101.54 26.2857 101.55 26.3278 101.56 26.372C101.894 27.926 100.496 29.747 99.8237 30.6224C98.5367 32.3049 96.6454 33.118 94.7923 33.7465C94.7541 33.7605 94.7321 33.7786 94.72 33.7906C94.6919 33.8207 94.6538 33.8388 94.6136 33.8468C94.3948 33.879 94.1699 33.9031 93.953 33.9231C93.8386 33.9352 93.7262 33.9472 93.6178 33.9593C92.5235 34.0898 91.4273 34.1821 90.307 34.2725C87.1147 34.5335 83.8982 34.7242 81.1356 34.8828C80.3465 34.929 79.5575 34.9752 78.7684 35.0234C74.6967 35.2663 70.4885 35.5173 66.3445 35.5655C65.9389 35.5695 65.5313 35.5735 65.1258 35.5735C65.0997 35.5735 65.0756 35.5695 65.0535 35.5595ZM92.899 26.8438C92.8789 26.8358 92.8588 26.8217 92.8408 26.8057C92.7243 26.6892 92.5938 26.5728 92.4673 26.4623C92.2485 26.2656 92.0196 26.0648 91.8429 25.844C91.3028 25.1653 90.8892 24.5891 90.5419 24.0269C90.0681 23.26 89.7569 22.5071 89.6123 21.7863C89.4497 20.9772 89.7247 20.3046 90.0982 19.6761C89.797 19.9151 89.5059 20.1841 89.3071 20.4853C89.277 20.5334 89.2248 20.5636 89.1686 20.5676C89.1405 20.5696 89.1104 20.5636 89.0843 20.5535C89.0682 20.5455 89.0541 20.5375 89.0401 20.5274C88.9096 20.4471 88.761 20.3748 88.5743 20.2965C88.4639 20.2504 88.3514 20.2062 88.241 20.162C88.1245 20.1178 88.0101 20.0737 87.8957 20.0255C87.6306 19.9151 87.4339 19.8107 87.2512 19.6882C86.683 19.3047 86.167 18.6542 85.7213 17.7607C85.0166 16.3493 85.2073 14.9559 86.177 14.0183C85.5325 14.3315 85.1049 14.8334 84.9262 15.496C84.9101 15.5522 84.868 15.6004 84.8118 15.6185C84.7676 15.6345 84.7214 15.6325 84.6793 15.6145C84.6672 15.6104 84.6552 15.6024 84.6431 15.5944C84.5287 15.5121 84.3941 15.4398 84.2195 15.3675C84.087 15.3113 83.9504 15.2631 83.8059 15.2109C83.6593 15.1587 83.5107 15.1065 83.3662 15.0463C83.2618 15.0021 83.1714 14.9579 83.0871 14.9138C82.3824 14.5303 81.7419 13.9641 81.1818 13.2293C80.5875 12.4462 80.2562 11.5046 80.2261 10.5047C80.2261 10.4786 80.2301 10.4525 80.2401 10.4284C80.2401 10.4284 80.2421 10.4264 80.2421 10.4244C80.2321 10.4003 80.2241 10.3682 80.2241 10.3441C80.2241 9.83013 80.3024 9.32017 80.457 8.82224C80.1197 9.22781 79.9008 9.6916 79.8044 10.2036C79.7884 10.2899 79.7141 10.3521 79.6278 10.3521C79.5173 10.3521 79.4049 10.3582 79.2945 10.3642C79.0174 10.3762 78.7303 10.3903 78.4412 10.3401C78.2002 10.2999 77.9533 10.2277 77.7043 10.1233C77.2225 9.92048 76.7245 9.59523 76.2266 9.15954C75.0461 8.11953 74.5441 6.74422 74.8212 5.43115C74.6867 5.65602 74.5943 5.90097 74.5421 6.16599C74.5301 6.21819 74.4959 6.26437 74.4498 6.29047C74.4016 6.31657 74.3434 6.31858 74.2932 6.2985C74.0161 6.18607 73.7089 6.13989 73.3816 6.0917C73.0624 6.04352 72.7331 5.99533 72.4219 5.87888C72.3858 5.86683 72.3497 5.85278 72.3155 5.83873C71.667 5.56567 71.0848 5.0296 70.7194 4.37106C70.7033 4.34295 70.6953 4.31083 70.6953 4.28071C70.6973 4.21044 70.6632 4.13615 70.6069 4.09198C70.5828 4.07191 70.5628 4.04581 70.5527 4.0177C70.5507 4.01368 70.5487 4.01167 70.5487 4.00766C70.2777 3.24672 70.5567 2.4135 71.2976 1.77705C72.434 0.801281 74.0462 0.576413 75.5038 1.18878C75.8391 1.32932 76.1564 1.51002 76.4475 1.72685C76.4916 1.76099 76.5198 1.81118 76.5218 1.86539C76.5238 1.9196 76.5017 1.97381 76.4615 2.00995C76.3069 2.14647 76.1865 2.30509 76.1021 2.48177C77.2907 1.73087 78.4773 1.76299 79.5896 1.9196C80.1357 1.9979 80.6878 2.1525 81.2319 2.38138C81.2801 2.40146 81.3283 2.42154 81.3765 2.44362C81.6897 2.58216 81.9748 2.80301 82.2499 3.01784C82.4225 3.15035 82.5992 3.28688 82.7739 3.3973C82.8281 3.43344 82.8622 3.49367 82.8602 3.55591C82.8582 3.62016 82.8241 3.68039 82.7679 3.71051C82.4125 3.90928 82.1374 4.15222 81.9668 4.4072C82.6615 3.86511 83.8199 3.80086 84.5548 3.91932C84.9242 3.97754 85.3077 4.09198 85.7293 4.26867C86.2814 4.50156 86.8055 4.80473 87.2893 5.09385C88.0683 5.55965 88.8112 6.1178 89.4958 6.75426C89.9877 7.21002 90.2909 7.71597 90.4475 8.34239C90.4857 8.49498 90.5057 8.63351 90.5258 8.76803C90.5519 8.93668 90.576 9.0953 90.6322 9.24789C90.6503 9.30009 90.6463 9.3563 90.6182 9.40248C90.5901 9.44866 90.5439 9.48078 90.4917 9.49082C90.2086 9.537 89.9355 9.6153 89.6705 9.72573C90.6101 9.61932 91.62 9.78797 92.6842 10.2357C93.4672 10.565 94.2683 11.0488 95.0011 11.6331C95.7681 12.2435 96.4447 12.9984 97.0149 13.8737C97.3 14.3114 97.5088 14.7913 97.7336 15.3274C98.0087 15.9739 97.9545 16.4457 97.8902 16.9938C97.8762 17.1263 97.8601 17.2648 97.8481 17.4134C97.8521 17.4676 97.83 17.5238 97.7879 17.562C97.7377 17.6061 97.6674 17.6202 97.6031 17.5981C96.8382 17.319 96.0793 17.2307 95.3404 17.3311C95.5271 17.4034 95.7118 17.4736 95.8966 17.5439C96.2921 17.6945 96.6675 17.837 97.041 17.9936C98.1472 18.4594 99.2997 19.0598 100.245 20.2925C101.018 21.3024 101.442 22.495 101.727 23.4206C101.934 24.1012 102.046 24.6393 102.086 25.1693C102.105 25.3701 102.076 25.5528 102.044 25.7195C102.028 25.7978 101.964 25.856 101.884 25.864C101.854 25.868 101.821 25.862 101.793 25.852C101.751 25.8339 101.717 25.7998 101.697 25.7556C101.5 25.2958 101.171 24.8722 100.717 24.5008C100.31 24.1675 99.8578 23.8924 99.368 23.6876C97.8762 23.0592 96.2881 23.1696 95.1216 23.9808C94.6758 24.292 93.4652 25.6512 93.1439 26.7294C93.1259 26.7896 93.0777 26.8378 93.0154 26.8538C92.9753 26.8619 92.9351 26.8599 92.899 26.8438Z" fill="#FFAC3E"/>
</g>
</g>
</g>
</g>
<mask id="mask4_5003_2395" style="mask-type:luminance" maskUnits="userSpaceOnUse" x="37" y="4" width="57" height="42">
<path d="M37.3486 4.62585H93.8869V45.2306H37.3486V4.62585Z" fill="white"/>
</mask>
<g mask="url(#mask4_5003_2395)">
<mask id="mask5_5003_2395" style="mask-type:luminance" maskUnits="userSpaceOnUse" x="33" y="-11" width="76" height="73">
<path d="M54.4989 -10.0588L108.869 12.7954L88.2532 61.8367L33.8833 38.9805L54.4989 -10.0588Z" fill="white"/>
</mask>
<g mask="url(#mask5_5003_2395)">
<mask id="mask6_5003_2395" style="mask-type:luminance" maskUnits="userSpaceOnUse" x="33" y="-11" width="76" height="73">
<path d="M54.4989 -10.0588L108.869 12.7954L88.2532 61.8367L33.8833 38.9805L54.4989 -10.0588Z" fill="white"/>
</mask>
<g mask="url(#mask6_5003_2395)">
<mask id="mask7_5003_2395" style="mask-type:luminance" maskUnits="userSpaceOnUse" x="33" y="-11" width="76" height="73">
<path d="M54.4989 -10.0588L108.869 12.7954L88.2532 61.8367L33.8833 38.9805L54.4989 -10.0588Z" fill="white"/>
</mask>
<g mask="url(#mask7_5003_2395)">
<path d="M39.4168 40.2935C39.1538 40.1831 38.8988 40.0305 38.6579 39.8397C37.4131 38.8559 37.6219 37.1313 37.8046 35.6074C37.8668 35.0894 37.9271 34.5995 37.923 34.1779C37.921 33.8948 37.909 33.6057 37.8969 33.3246C37.8608 32.4452 37.8227 31.5357 38.0776 30.6543C38.2543 30.0439 38.6559 29.5842 39.0434 29.1384C39.4208 28.7048 39.7762 28.2952 39.9388 27.7611C39.9489 27.725 39.9509 27.6929 39.9469 27.6627C39.9388 27.6286 39.9428 27.5905 39.9569 27.5583C40.0292 27.3837 40.0934 27.207 40.1577 27.0283L40.1938 26.9279C40.4608 26.1951 40.9989 25.655 41.4727 25.1792C41.5792 25.0707 41.6896 24.9623 41.798 24.8539C42.0409 24.613 42.2919 24.364 42.5288 24.109C42.6553 23.9685 42.7838 23.8279 42.9103 23.6874C43.1472 23.4284 43.3821 23.1694 43.623 22.9124C45.2413 21.1797 46.988 19.4952 48.9637 17.7665C55.4045 12.1248 62.5039 7.71173 70.0651 4.64589C70.1113 4.62782 70.1615 4.62983 70.2057 4.6479C70.2418 4.66195 70.2719 4.69006 70.294 4.7262C70.6132 5.29038 71.1212 5.79633 71.6854 6.11155C71.8982 6.23001 72.115 6.33642 72.3339 6.42877C72.876 6.65565 73.651 6.88855 74.2593 6.69179C74.2995 6.67773 74.3456 6.67974 74.3858 6.69781C74.3958 6.70183 74.4079 6.70785 74.4179 6.71387C74.4641 6.746 74.4942 6.7982 74.4982 6.85442C74.5444 7.65551 74.9158 8.5088 75.5141 9.19545C76.0301 9.78774 76.6927 10.2576 77.4837 10.5888C77.6604 10.6631 77.8451 10.7314 78.0319 10.7896C78.2909 10.8719 78.9594 11.0466 79.5377 10.9161C79.5758 10.9081 79.614 10.9121 79.6481 10.9261C79.6622 10.9322 79.6762 10.9402 79.6863 10.9482C79.7304 10.9803 79.7565 11.0285 79.7605 11.0807C79.8067 11.7051 80.0175 12.3536 80.3689 12.958C80.8628 13.8073 81.5274 14.526 82.3465 15.0942C82.6276 15.289 83.0974 15.6122 83.5612 15.809C83.9808 15.9837 84.3282 16.0278 84.5932 15.9375C84.6354 15.9234 84.6815 15.9254 84.7237 15.9435C84.7357 15.9475 84.7498 15.9555 84.7618 15.9636C84.81 15.9997 84.8361 16.0579 84.8341 16.1182C84.7659 17.8589 86.105 19.9168 87.7594 20.6115C88.1268 20.7661 88.4983 20.8504 88.8677 20.8625C88.8998 20.8565 88.9339 20.8625 88.9641 20.8745C88.9862 20.8846 89.0062 20.8966 89.0223 20.9147C89.0685 20.9609 89.0865 21.0271 89.0705 21.0894C88.9701 21.9728 89.3235 22.8441 89.6848 23.583C90.0503 24.3359 90.5542 25.1029 91.271 25.9983C91.3372 26.0786 91.4055 26.169 91.4778 26.2613C91.8351 26.7291 92.2809 27.3094 92.7828 27.5202C92.8892 27.5644 92.9936 27.5905 93.096 27.5985C93.1161 27.6005 93.1342 27.6045 93.1522 27.6125C93.1783 27.6226 93.1984 27.6386 93.2185 27.6587C93.2566 27.7009 93.2968 27.737 93.339 27.7651C93.355 27.7772 93.3731 27.7872 93.3891 27.7932C93.4052 27.8013 93.4213 27.8053 93.4373 27.8073C93.4534 27.8093 93.4674 27.8133 93.4815 27.8193C93.5417 27.8454 93.5839 27.8997 93.5919 27.9659C93.61 28.1065 93.618 28.2289 93.614 28.3253C93.612 28.3474 93.608 28.3675 93.6 28.3875C93.5939 28.4036 93.5839 28.4217 93.5719 28.4357C92.7145 29.4737 90.8855 29.3292 89.5523 29.2228C89.2612 29.2007 88.9862 29.1786 88.7492 29.1706C86.8459 29.1083 84.808 29.0621 82.7943 29.1384C82.0935 29.1665 81.3868 29.2127 80.7022 29.2589C79.4995 29.3372 78.2567 29.4195 77.0119 29.3974C76.4959 29.3874 75.9799 29.3733 75.464 29.3573C74.2031 29.3191 72.898 29.281 71.6211 29.3432C71.599 29.3452 71.577 29.3492 71.5629 29.3553C71.5468 29.3613 71.5288 29.3633 71.5127 29.3653C70.1595 29.4617 68.1879 29.7227 66.6881 30.8611C65.5678 31.7124 64.865 33.1318 64.5398 35.2018L64.5097 35.4046C64.3852 36.3463 64.4093 37.324 64.4354 38.2697C64.4655 39.4221 64.4976 40.6147 64.2587 41.7853C63.9997 43.0521 63.2046 44.0962 62.0181 44.7246C61.4619 45.0197 60.9961 45.092 60.6387 44.9414C60.4239 44.8511 60.2532 44.6824 60.1308 44.4395C59.6047 43.3995 59.7633 41.976 59.8918 40.8336C59.9139 40.6408 59.934 40.4561 59.9501 40.2794C59.9621 40.153 59.9762 40.0245 59.9922 39.894C60.0304 39.5426 60.0705 39.1812 60.0585 38.8319C60.0424 38.3038 59.9722 37.7657 59.9059 37.2477C59.8657 36.9406 59.8236 36.6233 59.7935 36.3081C59.7352 35.7038 59.7312 35.2079 59.7794 34.7441C59.8316 34.2341 60.0464 33.6699 60.2753 33.0736C60.7311 31.877 61.2029 30.6402 60.3817 29.7709C60.179 29.5581 59.92 29.3834 59.6148 29.2549C58.6571 28.8533 57.4665 28.9698 56.6734 29.2147C56.3763 29.3051 56.1092 29.4557 55.9004 29.6464C55.8904 29.6544 55.8804 29.6625 55.8703 29.6685C55.8502 29.6845 55.8342 29.7006 55.8181 29.7227C55.8181 29.7227 55.8001 29.7468 55.798 29.7488C55.6555 29.9054 55.5491 30.0801 55.4848 30.2688C55.4708 30.309 55.4688 30.3471 55.4768 30.3852C55.4848 30.4174 55.4808 30.4535 55.4708 30.4856C55.1455 31.3771 55.0652 32.3067 54.9809 33.2905L54.9508 33.6318C54.9407 33.7462 54.9307 33.8687 54.9207 33.9952C54.8705 34.6577 54.8122 35.4066 54.5994 36.0873C54.4087 36.6956 54.1276 37.1353 53.7401 37.4304C53.1478 37.8822 52.3467 37.6332 51.7143 37.3682C51.6601 37.3461 51.6099 37.324 51.5597 37.3019C51.0477 37.0771 50.6642 36.7438 50.4233 36.3121C50.1603 35.8403 50.0579 35.24 50.1061 34.479C50.1261 34.1839 50.1583 33.8727 50.1904 33.5715C50.343 32.1701 50.4976 30.7185 49.3572 29.7106C49.1383 29.5179 48.9074 29.3693 48.6725 29.2709C47.4197 28.7429 46.1548 29.6625 45.4561 30.8089C44.6651 32.1059 43.6953 33.8366 43.2014 35.7058C43.1994 35.7098 43.1974 35.7138 43.1974 35.7198C43.1151 36.021 43.0488 36.3222 42.9966 36.6153C42.9745 36.7418 42.9525 36.8683 42.9324 36.9928C42.7677 37.9685 42.6152 38.8901 41.9446 39.7173C41.3161 40.4943 40.3946 40.7031 39.4168 40.2935Z" fill="#FFD939"/>
</g>
</g>
</g>
</g>
<mask id="mask8_5003_2395" style="mask-type:luminance" maskUnits="userSpaceOnUse" x="44" y="8" width="44" height="21">
<path d="M44.5444 8.73779H87.2051V28.2692H44.5444V8.73779Z" fill="white"/>
</mask>
<g mask="url(#mask8_5003_2395)">
<mask id="mask9_5003_2395" style="mask-type:luminance" maskUnits="userSpaceOnUse" x="33" y="-11" width="76" height="73">
<path d="M54.4989 -10.0588L108.869 12.7954L88.2532 61.8367L33.8833 38.9805L54.4989 -10.0588Z" fill="white"/>
</mask>
<g mask="url(#mask9_5003_2395)">
<mask id="mask10_5003_2395" style="mask-type:luminance" maskUnits="userSpaceOnUse" x="33" y="-11" width="76" height="73">
<path d="M54.4989 -10.0588L108.869 12.7954L88.2532 61.8367L33.8833 38.9805L54.4989 -10.0588Z" fill="white"/>
</mask>
<g mask="url(#mask10_5003_2395)">
<mask id="mask11_5003_2395" style="mask-type:luminance" maskUnits="userSpaceOnUse" x="33" y="-11" width="76" height="73">
<path d="M54.4989 -10.0588L108.869 12.7954L88.2532 61.8367L33.8833 38.9805L54.4989 -10.0588Z" fill="white"/>
</mask>
<g mask="url(#mask11_5003_2395)">
<path d="M71.5386 10.3799C71.386 9.99446 71.4462 9.63507 71.7052 9.36603C72.0525 9.00865 72.7111 8.87815 73.2371 9.06487C73.2371 9.06487 73.2371 9.06487 73.2391 9.06487C74.0482 9.40619 74.7289 10.3599 74.4297 11.1951C74.3494 11.424 74.1908 11.5946 73.976 11.691C73.5945 11.8577 73.0865 11.7613 72.7392 11.6167L72.701 11.5987C72.179 11.3637 71.7454 10.908 71.5386 10.3799ZM69.1754 12.1106C68.6876 11.171 67.9367 10.4823 66.9448 10.0647C66.2261 9.76357 65.4129 9.61901 64.5295 9.63306C64.5175 9.63507 64.5054 9.63306 64.4934 9.62905C64.4653 9.617 64.4351 9.61499 64.403 9.61901C62.5679 9.91013 60.1767 10.9702 59.2692 12.6166C58.7853 13.494 58.7572 14.4376 59.1809 15.4214C59.6025 16.3972 60.3574 17.136 61.3653 17.5597H61.3673C62.2487 17.9311 63.2887 18.0516 64.3709 17.913C66.216 17.6761 68.4707 16.7786 69.2738 14.9737C69.6874 14.0441 69.6533 13.0282 69.1754 12.1106ZM80.4128 22.5027C81.489 21.533 82.1877 19.8385 81.1858 18.4109C80.5313 17.4773 79.5515 16.9654 78.5235 16.4835C78.5215 16.4835 78.5054 16.4775 78.5014 16.4755C76.058 15.6945 72.7653 15.2126 70.9543 17.3609C70.2395 18.2062 69.9805 19.1538 70.2054 20.1015C70.4865 21.2881 71.5446 22.4064 72.9661 23.0207L73.0504 23.0569C75.1766 23.9503 78.381 24.3418 80.4128 22.5027ZM77.5297 14.0822C77.5779 14.1144 77.6321 14.1425 77.6903 14.1666C78.142 14.3573 78.7544 14.275 79.0837 13.9778C79.5435 13.5662 79.1921 13.0442 78.9592 12.6969C78.9311 12.6547 78.905 12.6146 78.8789 12.5744C78.8588 12.5423 78.8287 12.5182 78.7946 12.5041C78.7825 12.5001 78.7725 12.4961 78.7685 12.4961C78.3027 12.3214 77.7566 12.4158 77.4072 12.731C77.2064 12.9137 77.102 13.1647 77.1241 13.4237C77.1442 13.6867 77.2928 13.9276 77.5297 14.0822ZM87.0243 23.7174C87.0243 23.6612 87.0002 23.609 86.9561 23.5749C86.942 23.5648 86.928 23.5568 86.9139 23.5508C86.8778 23.5347 86.8376 23.5327 86.7995 23.5407C86.0727 23.7174 83.9525 24.4924 83.5409 25.432C83.4385 25.667 83.4465 25.9039 83.565 26.1187C83.7397 26.4339 84.1051 26.7491 84.4785 26.9057C84.8238 27.0523 85.1471 27.0543 85.4121 26.9138C85.8177 26.6969 86.0184 26.2874 86.1951 25.926L86.2032 25.9079C86.2674 25.7774 86.3397 25.6429 86.412 25.5023C86.7011 24.9582 87.0263 24.3418 87.0243 23.7174ZM67.7379 20.9628C67.7319 20.9487 67.7238 20.9367 67.7158 20.9267C67.6576 20.7982 67.5552 20.6978 67.4166 20.6416C66.981 20.4568 66.2582 20.7179 66.0092 20.9206C65.8225 21.0732 65.7362 21.278 65.7683 21.4949C65.8044 21.7358 65.9831 21.9486 66.2341 22.055C66.2642 22.0671 66.2943 22.0791 66.3244 22.0871C66.7099 22.2016 67.764 22.049 67.9848 21.6193C68.0471 21.4969 68.1013 21.2519 67.7519 20.9789C67.7499 20.9748 67.7459 20.9728 67.7439 20.9708V20.9688C67.7419 20.9668 67.7399 20.9648 67.7379 20.9628ZM54.9043 16.4253C54.9284 16.4353 54.9525 16.4434 54.9786 16.4534C55.5769 16.6602 56.4744 16.345 56.8619 15.7908C57.1189 15.4214 57.1008 15.0078 56.8117 14.6544C56.7916 14.6304 56.7635 14.6103 56.7354 14.5982C56.7274 14.5942 56.7214 14.5922 56.7133 14.5902C56.6792 14.5721 56.6451 14.5561 56.6109 14.542C55.9865 14.279 55.2376 14.5561 54.808 14.9255C54.5108 15.1765 54.3582 15.5278 54.4084 15.841C54.4486 16.1 54.6253 16.3068 54.9043 16.4253ZM49.0036 24.5185C48.9935 24.5065 48.9835 24.4964 48.9714 24.4884C48.8751 24.4222 48.7707 24.3639 48.6602 24.3157C47.5379 23.8439 45.9357 24.5346 45.2069 25.149C44.7973 25.4943 44.5986 25.8637 44.6508 26.189C44.6929 26.464 44.8977 26.6809 45.2591 26.8315L45.2812 26.8415C46.006 27.1326 46.8954 27.1688 47.6042 26.9318C48.1322 26.7552 49.0036 26.1107 49.1983 25.4039C49.2887 25.0767 49.2204 24.7695 49.0036 24.5185ZM79.7683 26.5805C79.5374 26.3616 79.2644 26.1829 78.9773 26.0625C78.5556 25.8858 78.118 25.8356 77.7104 25.9199C77.3932 25.9842 77.1763 26.1287 77.082 26.3355C77.0217 26.466 76.9876 26.6829 77.1542 26.978C77.3389 27.3033 77.6642 27.5884 78.0256 27.741C78.1461 27.7912 78.2685 27.8253 78.387 27.8434C78.8327 27.9116 79.3367 27.751 79.6137 27.4559C79.8185 27.237 79.8888 26.966 79.8225 26.6728C79.8145 26.6367 79.7964 26.6046 79.7683 26.5805ZM67.3002 25.0546C67.2861 25.0425 67.2621 25.0285 67.244 25.0205C66.21 24.5868 64.9009 24.7856 64.0597 25.5023C63.7244 25.7894 63.6862 26.0585 63.7144 26.2331C63.7525 26.4921 63.9633 26.717 64.3046 26.8636L64.3267 26.8736C64.9712 27.1447 65.7 27.1587 66.2762 26.9118C66.6336 26.7592 67.4488 26.2331 67.5371 25.6569C67.5733 25.43 67.4909 25.2212 67.3002 25.0546ZM60.8091 19.722C60.3996 19.461 59.9338 19.2201 59.4298 19.0093C57.663 18.2664 55.7476 17.9913 54.306 18.2744C53.0211 18.5254 51.4229 19.6598 51.0936 20.9467C50.9571 21.4828 50.9812 22.2779 51.8807 23.0308C51.8927 23.0408 51.9008 23.0529 51.9068 23.0669C51.9228 23.1051 51.9489 23.1352 51.9851 23.1553C52.2642 23.3199 52.5593 23.4645 52.8846 23.601C53.7318 23.9584 54.6333 24.1832 55.5067 24.4001C55.7717 24.4663 56.0367 24.5326 56.2997 24.6028C57.2594 24.8578 58.2814 25.0727 59.2511 24.9261C60.6023 24.7173 61.7729 23.6492 62.0359 22.3843C62.2567 21.3282 61.809 20.3565 60.8091 19.722Z" fill="#F44242"/>
</g>
</g>
</g>
</g>
<mask id="mask12_5003_2395" style="mask-type:luminance" maskUnits="userSpaceOnUse" x="37" y="0" width="62" height="43">
<path d="M37.3486 0.514038H98.5127V42.1467H37.3486V0.514038Z" fill="white"/>
</mask>
<g mask="url(#mask12_5003_2395)">
<mask id="mask13_5003_2395" style="mask-type:luminance" maskUnits="userSpaceOnUse" x="33" y="-11" width="76" height="73">
<path d="M54.4989 -10.0587L108.869 12.7955L88.2532 61.8368L33.8833 38.9806L54.4989 -10.0587Z" fill="white"/>
</mask>
<g mask="url(#mask13_5003_2395)">
<mask id="mask14_5003_2395" style="mask-type:luminance" maskUnits="userSpaceOnUse" x="33" y="-11" width="76" height="73">
<path d="M54.4989 -10.0587L108.869 12.7955L88.2532 61.8368L33.8833 38.9806L54.4989 -10.0587Z" fill="white"/>
</mask>
<g mask="url(#mask14_5003_2395)">
<mask id="mask15_5003_2395" style="mask-type:luminance" maskUnits="userSpaceOnUse" x="33" y="-11" width="76" height="73">
<path d="M54.4989 -10.0587L108.869 12.7955L88.2532 61.8368L33.8833 38.9806L54.4989 -10.0587Z" fill="white"/>
</mask>
<g mask="url(#mask15_5003_2395)">
<path d="M76.9819 17.4916C75.988 17.2627 75.1488 17.1242 74.1831 17.5719C73.3358 17.9655 72.619 18.618 71.8581 19.1541C71.7557 19.2263 71.6051 19.146 71.6232 19.0155C71.9043 16.9295 75.8194 14.9619 77.1666 17.1764C77.2469 17.3049 77.1686 17.5338 76.9819 17.4916ZM71.8541 19.5998C71.6171 19.5014 71.3381 19.6138 71.2397 19.8487C71.1413 20.0836 71.2558 20.3607 71.4907 20.4611C71.7276 20.5595 72.0067 20.447 72.105 20.2121C72.2034 19.9772 72.089 19.7002 71.8541 19.5998ZM60.7572 13.3858C60.7914 13.5103 60.9861 13.5584 61.0805 13.4741C62.1727 12.4903 63.554 10.2597 65.2968 10.7496C65.3771 10.7717 65.4493 10.7095 65.4212 10.6251C64.8149 8.71375 60.2975 11.7093 60.7572 13.3858ZM61.2652 14.9157C61.3616 14.6888 61.2491 14.4178 61.0202 14.3214C60.7914 14.225 60.5203 14.3354 60.4239 14.5623C60.3296 14.7912 60.44 15.0602 60.6689 15.1566C60.8978 15.253 61.1688 15.1446 61.2652 14.9157ZM56.5992 19.5255C56.7819 19.5154 56.7899 19.2625 56.6434 19.1942C55.7178 18.7605 54.6597 18.7947 53.702 19.1119C52.8126 19.409 52.0075 20.4229 52.5275 21.3425C52.5877 21.4509 52.7624 21.5192 52.8447 21.3887C53.2723 20.7181 53.5775 20.2001 54.3485 19.8809C55.0351 19.5978 55.8643 19.5656 56.5992 19.5255ZM53.4751 22.3383C53.4952 22.248 53.4932 22.1617 53.4571 22.0693C53.3968 21.9227 53.2583 21.8163 53.0997 21.7962C52.9451 21.7762 52.7885 21.8404 52.6921 21.9609C52.5877 22.0934 52.5797 22.25 52.6299 22.4046C52.6479 22.4628 52.6821 22.515 52.7182 22.5632C52.8045 22.6857 52.9652 22.7479 53.1117 22.7299C53.2824 22.7078 53.4751 22.5512 53.4751 22.3664C53.4771 22.3464 53.4771 22.3383 53.4751 22.3383ZM51.9874 35.71C51.1642 34.7844 51.5316 33.5235 51.4573 32.3891C51.4453 32.2044 51.1983 32.2044 51.1261 32.345C50.6201 33.3428 49.8371 36.1035 51.5919 36.3906C51.9412 36.4468 52.2363 35.991 51.9874 35.71ZM39.4329 37.7579C39.2582 37.6033 38.9731 37.6976 38.8888 37.8984C38.8045 38.0992 38.937 38.3682 39.1699 38.3843C39.2442 38.3883 39.3104 38.3883 39.3807 38.3582C39.5494 38.2819 39.6257 38.1012 39.5614 37.9285C39.5353 37.8562 39.4891 37.8101 39.4329 37.7579ZM61.2853 37.9165C61.2371 37.8181 61.1226 37.784 61.0303 37.8462C60.4982 38.2056 60.4019 39.101 60.3115 39.6873C60.2091 40.374 60.1348 41.1469 60.6588 41.679C60.7472 41.7693 60.9138 41.7091 60.956 41.6027C61.1789 41.0325 61.1246 40.4021 61.1949 39.8018C61.2632 39.2295 61.5503 38.4666 61.2853 37.9165ZM80.4432 4.71833C80.1501 4.84682 79.9855 5.0235 79.8449 5.3066C79.7124 5.56961 79.5036 5.97317 79.616 6.26229C79.6763 6.4209 79.875 6.46306 80.0075 6.3707C80.2184 6.22414 80.2324 5.929 80.3067 5.6961C80.385 5.45718 80.4874 5.16806 80.6219 4.95524C80.6982 4.83478 80.5958 4.65207 80.4432 4.71833ZM80.7865 5.98722C80.7283 6.07155 80.6741 6.16591 80.6581 6.26831C80.64 6.3687 80.7062 6.4731 80.7986 6.51325C80.905 6.55743 80.9994 6.51727 81.0737 6.44298C81.1238 6.39279 81.1841 6.30445 81.2122 6.23819C81.2323 6.19201 81.2303 6.14584 81.2363 6.09765C81.2543 5.94707 81.0977 5.81857 80.9552 5.88081C80.895 5.90691 80.8247 5.93301 80.7865 5.98722ZM89.8194 10.7135C88.3899 10.9544 87.2796 12.3759 87.0327 13.7673C87.0025 13.9439 87.2254 14.0022 87.3298 13.8917C88.2353 12.9521 88.6228 11.6491 89.9218 11.0929C90.1246 11.0046 90.0483 10.6733 89.8194 10.7135ZM87.9763 14.1568C87.6591 14.3294 87.1732 14.6467 87.2676 15.0763C87.2997 15.2289 87.4523 15.3433 87.6089 15.2751C87.7414 15.2189 87.8699 15.0984 87.9602 14.988C88.0526 14.8795 88.1811 14.8012 88.3036 14.731C88.6308 14.5443 88.3076 13.9781 87.9763 14.1568ZM97.2561 21.8746C97.5292 21.8545 97.8323 21.8464 98.1034 21.8103C98.1817 21.8003 98.3162 21.7099 98.3022 21.6156C98.3001 21.5975 98.2961 21.5794 98.2941 21.5613C98.2821 21.4871 98.2319 21.4128 98.1596 21.3867C97.6195 21.1939 97.1557 21.1176 96.5895 21.216C96.0856 21.3023 95.4632 21.467 95.1179 21.8585C94.9251 22.0773 95.148 22.3845 95.407 22.3644C95.6981 22.3403 95.9491 22.1978 96.2181 22.0954C96.5514 21.9649 96.9007 21.9027 97.2561 21.8746ZM96.9389 20.0595C97.2762 20.0334 97.5774 20.2061 97.9066 20.19C98.0171 20.186 98.0411 20.0555 97.995 19.9772C97.7741 19.5958 97.214 19.6459 96.8526 19.7403C96.6618 19.7925 96.7582 20.0736 96.9389 20.0595ZM92.9033 18.7746C93.1141 18.6802 93.2828 18.5256 93.4876 18.4232C93.6823 18.3269 93.9052 18.3008 94.11 18.2365C94.1963 18.2104 94.2345 18.0799 94.1722 18.0136C93.9473 17.7687 93.6221 17.7787 93.327 17.8932C93.0158 18.0136 92.7166 18.2566 92.6845 18.6059C92.6724 18.7204 92.7889 18.8268 92.9033 18.7746ZM96.7783 25.882C96.5394 25.7816 96.2563 25.8961 96.1559 26.135C96.0555 26.3719 96.1719 26.655 96.4109 26.7554C96.6518 26.8558 96.9349 26.7413 97.0333 26.5024C97.1336 26.2655 97.0172 25.9824 96.7783 25.882ZM92.6503 31.9294C92.3853 31.8169 92.0721 31.9434 91.9617 32.2084C91.8513 32.4715 91.9798 32.7827 92.2448 32.8951C92.5078 33.0055 92.821 32.879 92.9334 32.616C93.0439 32.353 92.9154 32.0398 92.6503 31.9294ZM89.0464 32.606C88.7011 32.4614 88.2935 32.6261 88.149 32.9714C88.0044 33.3147 88.1711 33.7223 88.5164 33.8668C88.8617 34.0134 89.2713 33.8468 89.4159 33.5034C89.5604 33.1601 89.3918 32.7525 89.0464 32.606ZM75.3696 27.7914C75.0504 27.699 74.7874 27.6428 74.4481 27.6288C74.0887 27.6147 73.7173 27.679 73.3639 27.7432C73.0286 27.8034 73.0949 28.2813 73.4322 28.2632C73.7454 28.2451 74.0546 28.2572 74.3678 28.2592C74.7071 28.2612 74.9962 28.221 75.3214 28.1468C75.4801 28.1106 75.5664 27.8496 75.3696 27.7914ZM90.4659 27.701C89.8796 27.4039 89.1769 27.4722 88.5405 27.4762C87.9823 27.4822 87.1471 27.4963 86.7094 27.8837C86.5889 27.9902 86.6411 28.1568 86.7917 28.1929C87.3499 28.3315 88.0546 28.1608 88.6308 28.1468C89.2332 28.1307 89.9078 28.1889 90.4639 27.9239C90.5623 27.8777 90.5623 27.7492 90.4659 27.701ZM65.1743 29.5642C64.333 30.1485 63.4777 31.4897 63.7387 32.5658C63.7789 32.7325 63.9897 32.7706 64.07 32.61C64.5258 31.7065 64.6001 30.5982 65.4152 29.8815C65.6039 29.7148 65.3871 29.4177 65.1743 29.5642ZM55.7519 28.0424C55.4166 28.3234 55.0211 28.7812 55.0612 29.245C55.0693 29.3514 55.2038 29.3996 55.2861 29.3394C55.4909 29.1848 55.5873 29.0001 55.7258 28.7872C55.8563 28.5865 55.9507 28.4218 55.9969 28.1869C56.023 28.0564 55.8503 27.96 55.7519 28.0424ZM47.5523 26.0266C47.3455 26.0507 45.6308 25.8559 45.7232 26.2314C45.7955 26.5305 46.3376 26.4924 46.5725 26.5125C46.9419 26.5446 47.3414 26.4843 47.6567 26.2796C47.7791 26.1992 47.6868 26.0125 47.5523 26.0266ZM70.1676 4.66813C69.0854 5.17609 67.945 5.54552 66.8568 6.04143C65.4614 6.67387 64.0981 7.37257 62.7549 8.10741C61.5784 8.7519 60.428 9.43654 59.2996 10.1633C58.3118 10.7998 57.1734 11.4342 56.3081 12.2675C56.2298 12.2574 56.1494 12.2635 56.0651 12.2916C54.6958 12.7473 53.451 13.8636 52.3789 14.7912C51.2084 15.8031 50.1202 16.9054 49.0219 17.9896C47.737 19.2585 46.3697 20.443 44.9743 21.5854C43.7255 22.6094 42.5429 23.5852 41.5431 24.8661C39.706 27.2192 38.1178 29.8393 37.7926 32.8449C37.652 34.1499 37.5657 35.465 37.4452 36.7721C37.3469 37.8161 37.4513 38.7637 38.4009 39.346C38.5073 39.4123 38.668 39.3259 38.6077 39.1914C38.2363 38.3441 38.4833 37.1435 38.6218 36.2641C38.6298 36.2199 38.6338 36.1737 38.6419 36.1276C38.7543 36.4147 38.929 36.6556 39.206 36.76C39.2944 36.7941 39.4269 36.76 39.457 36.6576C39.6036 36.1557 39.3486 35.5172 39.2803 35.0052C39.184 34.2865 39.2482 33.4633 39.5052 32.7847C39.6377 32.4353 39.1338 32.2265 38.9731 32.5598C38.9711 32.5658 38.9691 32.5718 38.9651 32.5759C38.9711 32.5277 38.9772 32.4775 38.9832 32.4273C39.1779 30.8753 39.8023 29.6104 40.6175 28.2953C41.3463 27.1208 42.0892 25.9583 42.9826 24.9002C43.9122 23.8 45.0948 22.9708 46.197 22.0573C47.4499 21.0233 48.6545 19.9351 49.819 18.8027C50.8911 17.7587 51.9472 16.7006 53.0716 15.7108C54.1678 14.745 55.4327 14.0724 56.5751 13.185C56.6875 13.0987 56.7498 12.9903 56.7698 12.8818C57.7697 12.408 58.6913 11.6932 59.6208 11.1251C60.8737 10.3581 62.1466 9.61724 63.4356 8.91452C64.6844 8.23189 65.9613 7.60346 67.2543 7.00716C68.3405 6.50924 69.4849 6.14584 70.5671 5.63988C71.1795 5.35478 70.7819 4.38102 70.1676 4.66813ZM82.3144 3.96341C82.6819 4.23044 83.0613 3.72449 82.7421 3.42132C81.8386 2.562 80.5296 2.04601 79.3349 1.76693C78.5338 1.58021 77.3292 1.53002 76.5622 2.02393C76.5622 2.02192 76.5622 2.0179 76.5622 2.01589C76.1205 0.237028 73.3318 0.241044 72.0769 1.03812C70.7378 1.88941 69.7339 3.89113 71.0891 5.18011C71.2136 5.30057 71.4344 5.19215 71.4505 5.03354C71.5649 3.97144 71.581 2.95151 72.4524 2.1986C73.4583 1.33125 75.1408 1.39751 76.1085 2.27289C76.1406 2.30099 76.1788 2.31706 76.2169 2.32509C76.1948 2.35119 76.1707 2.37528 76.1486 2.40339C76.0663 2.51382 76.1808 2.63227 76.2992 2.60015C76.8232 2.46161 77.2629 2.24879 77.8211 2.21868C78.4315 2.18655 79.0298 2.29497 79.612 2.47165C80.6279 2.77683 81.4692 3.34703 82.3144 3.96341ZM98.1696 17.1644C98.4929 15.3152 97.1939 13.5042 95.9531 12.2835C95.156 11.4965 94.2345 10.7998 93.2225 10.3159C92.5399 9.98867 91.6043 9.58913 90.755 9.58511C90.8233 9.50681 90.8634 9.40241 90.8434 9.29198C90.5322 7.44686 88.7935 5.67602 87.2575 4.73037C85.6814 3.76063 83.8002 3.46951 82.0836 4.2204C81.8587 4.31878 81.943 4.7123 82.198 4.65006C83.9307 4.23044 85.6172 4.83678 87.0286 5.84869C87.6872 6.32051 88.2594 6.87666 88.7613 7.51111C89.2974 8.18772 89.5664 9.06711 90.2129 9.64735C90.0925 9.67546 89.976 9.71562 89.8656 9.76982C89.8154 9.79392 89.7873 9.87624 89.8455 9.91238C90.1929 10.1212 90.4659 10.1674 90.8795 10.2336C91.5702 10.346 92.2508 10.587 92.8531 10.9424C93.6221 11.3961 94.2806 12.3036 94.8769 12.9662C95.4732 13.6247 96.0756 14.2973 96.4972 15.0863C96.8706 15.785 96.8224 16.5962 97.1597 17.2949C97.3906 17.7707 98.0753 17.6944 98.1696 17.1644ZM91.9998 14.8816C91.4196 15.1968 90.5884 15.6385 90.3454 16.295C90.2832 16.4637 90.484 16.6524 90.6386 16.5239C90.8835 16.3191 91.0642 16.0481 91.3072 15.8352C91.5782 15.5963 91.8713 15.3875 92.1765 15.1908C92.3472 15.0823 92.1805 14.7852 91.9998 14.8816ZM84.3945 8.2339C82.8485 8.73583 81.1339 10.6854 81.9691 12.398C82.0334 12.5305 82.2482 12.5225 82.2642 12.3618C82.3405 11.6009 82.3606 10.9664 82.6738 10.2477C83.0172 9.46465 83.7379 8.84024 84.4808 8.44672C84.6113 8.37645 84.537 8.18571 84.3945 8.2339Z" fill="white"/>
</g>
</g>
</g>
</g>
<mask id="mask16_5003_2395" style="mask-type:luminance" maskUnits="userSpaceOnUse" x="36" y="0" width="68" height="46">
<path d="M36.8345 0H103.138V45.7446H36.8345V0Z" fill="white"/>
</mask>
<g mask="url(#mask16_5003_2395)">
<mask id="mask17_5003_2395" style="mask-type:luminance" maskUnits="userSpaceOnUse" x="33" y="-11" width="76" height="73">
<path d="M54.4989 -10.0588L108.869 12.7954L88.2532 61.8367L33.8833 38.9805L54.4989 -10.0588Z" fill="white"/>
</mask>
<g mask="url(#mask17_5003_2395)">
<mask id="mask18_5003_2395" style="mask-type:luminance" maskUnits="userSpaceOnUse" x="33" y="-11" width="76" height="73">
<path d="M54.4989 -10.0588L108.869 12.7954L88.2532 61.8367L33.8833 38.9805L54.4989 -10.0588Z" fill="white"/>
</mask>
<g mask="url(#mask18_5003_2395)">
<mask id="mask19_5003_2395" style="mask-type:luminance" maskUnits="userSpaceOnUse" x="33" y="-11" width="76" height="73">
<path d="M54.4989 -10.0588L108.869 12.7954L88.2532 61.8367L33.8833 38.9805L54.4989 -10.0588Z" fill="white"/>
</mask>
<g mask="url(#mask19_5003_2395)">
<path d="M92.3047 13.9258C92.3891 13.8174 92.4674 13.6768 92.6079 13.6266C92.7625 13.5724 92.9131 13.5443 93.0777 13.5403C93.3447 13.5323 93.6941 13.5504 93.9149 13.721C94.0093 13.7933 94.0033 13.98 93.8728 14.0162C93.6359 14.0804 93.3869 14.0141 93.144 14.0342C93.0275 14.0423 92.9111 14.0543 92.7986 14.0804C92.6882 14.1065 92.5637 14.0904 92.4573 14.1266C92.3348 14.1687 92.2224 14.0322 92.3047 13.9258ZM85.6651 9.53485C85.7575 9.53084 85.8438 9.5208 85.9321 9.49068C86.0104 9.46257 86.0827 9.42844 86.159 9.39632C86.2554 9.35616 86.2494 9.1835 86.1309 9.18149C86.0365 9.17948 85.9462 9.17346 85.8518 9.18751C85.7434 9.20157 85.6571 9.24975 85.5748 9.314C85.4703 9.39431 85.5446 9.54288 85.6651 9.53485ZM83.6915 7.79413C83.9846 7.68772 84.4384 7.44479 84.4504 7.08941C84.4524 7.00308 84.34 6.96895 84.2998 7.04926C84.2818 7.0854 84.2135 7.11351 84.1774 7.13358C84.095 7.18177 84.0187 7.242 83.9384 7.29621C83.7919 7.39459 83.6553 7.52108 83.5811 7.68371C83.5509 7.75398 83.6252 7.81823 83.6915 7.79413ZM89.9255 12.9099C89.9577 12.8878 89.9998 12.8717 90.034 12.8476C90.0761 12.8195 90.1123 12.7673 90.1444 12.7272C90.2147 12.6388 90.2588 12.5324 90.293 12.428C90.3492 12.2634 90.1303 12.175 90.046 12.3256C90.0059 12.3979 89.9557 12.4722 89.9095 12.5425C89.8854 12.5766 89.8673 12.6147 89.8472 12.6509C89.8171 12.7051 89.8171 12.7553 89.7971 12.8115C89.7689 12.8878 89.8553 12.9621 89.9255 12.9099ZM94.7843 21.491C94.6919 21.5653 94.6357 21.7058 94.5695 21.8042C94.4912 21.9247 94.4209 22.0532 94.4289 22.1997C94.4309 22.26 94.4992 22.2861 94.5474 22.27C94.6899 22.2218 94.7783 22.0913 94.8445 21.9668C94.9068 21.8524 95.0011 21.7139 94.9951 21.5793C94.9891 21.481 94.8566 21.4308 94.7843 21.491ZM92.9091 19.7884H92.9111C92.9191 19.7603 92.9151 19.7724 92.9091 19.7884ZM92.905 19.7904C92.9432 19.7041 92.8689 19.5877 92.7505 19.6278C92.6742 19.6519 92.6019 19.7382 92.5577 19.8025C92.5135 19.8707 92.4392 20.0173 92.5196 20.0936C92.5457 20.1338 92.5979 20.1458 92.644 20.1197C92.5938 20.1478 92.6561 20.1257 92.6641 20.1237C92.6962 20.1097 92.7163 20.0916 92.7384 20.0675C92.7123 20.0956 92.7986 20.0053 92.7745 20.0354C92.7886 20.0173 92.7986 19.9992 92.8127 19.9812C92.8368 19.941 92.8589 19.9009 92.8789 19.8607C92.883 19.8487 92.891 19.8366 92.895 19.8246C92.899 19.8185 92.905 19.8025 92.9091 19.7884C92.9091 19.7884 92.9071 19.7904 92.905 19.7904ZM78.5838 4.60181C78.7243 4.55764 78.7886 4.33277 78.8367 4.2103C78.897 4.05169 78.6641 3.95331 78.5938 4.10791C78.5396 4.22837 78.4231 4.43115 78.4934 4.56366C78.5115 4.5978 78.5436 4.61185 78.5838 4.60181ZM78.3308 22.268C78.9592 22.2419 79.5535 21.9528 79.9832 21.497C80.2743 21.1918 80.7381 20.4309 80.2622 20.0796C80.2341 20.0595 80.1819 20.0655 80.1719 20.1036C80.1237 20.2703 80.1498 20.4349 80.0996 20.6016C80.0193 20.8726 79.7985 21.1015 79.5957 21.2862C79.2303 21.6175 78.7444 21.9166 78.2886 22.1074C78.1963 22.1455 78.2384 22.27 78.3308 22.268ZM76.5881 22.5672C76.7306 22.7358 76.9796 22.7137 77.1783 22.7097C77.3289 22.7057 77.3109 22.4848 77.1783 22.4587C77.0157 22.4286 76.8451 22.3262 76.6784 22.3523C76.584 22.3684 76.5198 22.4868 76.5881 22.5672ZM68.0451 13.448C67.9748 13.3998 67.8945 13.4801 67.9407 13.5524C68.1756 13.9158 68.019 14.3213 67.756 14.6205C67.515 14.8935 67.1075 15.1003 66.9228 15.4075C66.8424 15.544 66.8866 15.7328 67.0673 15.7569C67.6215 15.8332 68.1555 15.1827 68.3463 14.7309C68.553 14.245 68.4908 13.7592 68.0451 13.448ZM65.178 16.3753C65.1057 16.3853 65.0576 16.4255 64.9953 16.4636C64.9371 16.4997 64.8608 16.5098 64.7965 16.5299C64.6399 16.5821 64.4833 16.6222 64.4091 16.7788C64.391 16.815 64.395 16.8732 64.4231 16.9033C64.4994 16.9836 64.5717 17.0177 64.6861 17.0097C64.7825 17.0037 64.8769 16.9796 64.9632 16.9334C65.1037 16.8591 65.3145 16.7045 65.3427 16.5379C65.3587 16.4455 65.2704 16.3632 65.178 16.3753ZM60.4859 20.9449C60.3976 20.9328 60.3514 21.0312 60.3956 21.0995C61.0059 22.0351 59.3756 22.5471 59.1387 23.3401C59.1206 23.4004 59.1387 23.4586 59.1989 23.4867C59.7932 23.7678 60.5341 22.8603 60.7991 22.4628C61.0983 22.013 61.2368 21.0513 60.4859 20.9449ZM57.926 22.8623C57.7734 22.8101 57.6148 22.794 57.4964 22.9065C57.4261 22.9627 57.39 23.049 57.398 23.1394C57.402 23.304 57.5225 23.4044 57.667 23.4767C57.8297 23.559 58.0385 23.4586 58.1047 23.3C58.173 23.1394 58.0987 22.9205 57.926 22.8623ZM78.8468 26.7051C78.8367 26.7272 78.8307 26.7533 78.8307 26.7794C78.8327 26.8196 78.8126 26.8557 78.7966 26.8878C78.7705 26.94 78.7865 26.9983 78.8167 27.0444C78.8187 27.0485 78.8207 27.0525 78.8247 27.0565C78.8468 27.0926 78.905 27.1187 78.9492 27.1087C78.9532 27.1067 78.9572 27.1067 78.9612 27.1047C79.0335 27.0866 79.0837 27.0464 79.0977 26.9702C79.1098 26.8939 79.1118 26.8095 79.0857 26.7352C79.0676 26.6871 79.0415 26.665 78.9974 26.6389C78.9873 26.6369 78.9813 26.6349 78.9753 26.6329C78.9632 26.6248 78.9492 26.6168 78.9351 26.6108C78.891 26.5907 78.8347 26.6308 78.8448 26.681C78.8468 26.6891 78.8468 26.6971 78.8468 26.7051ZM63.2646 36.5933C63.2245 36.523 63.1141 36.523 63.1 36.6134C62.9755 37.4827 63.1964 38.4003 63.2425 39.2696C63.2807 39.9322 63.2546 40.5867 63.0759 41.2292C62.9635 41.6408 62.7747 41.9841 62.6984 42.4097C62.6884 42.472 62.7567 42.5162 62.8109 42.4961C63.7385 42.1467 63.8489 40.9642 63.8991 40.0988C63.9633 38.9805 63.8228 37.5891 63.2646 36.5933ZM61.9014 43.0763C61.7568 43.1406 61.5962 43.2289 61.5159 43.3674C61.4978 43.3956 61.5199 43.4478 61.552 43.4558C61.7227 43.502 61.9576 43.4377 62.064 43.2932C62.1463 43.1847 62.0339 43.0181 61.9014 43.0763ZM54.4185 30.8411C54.3823 30.7949 54.294 30.7949 54.2739 30.8592C54.1073 31.3972 54.0952 32.0297 53.9647 32.5898C53.7881 33.3468 53.4307 34.0796 53.4307 34.8666C53.4307 34.955 53.523 34.9971 53.5873 34.9329C54.1173 34.3908 54.2539 33.5797 54.4105 32.8649C54.5249 32.3489 54.7879 31.3129 54.4185 30.8411ZM53.0211 35.6055C52.9649 35.734 52.8906 35.8464 52.7842 35.9368C52.6999 36.009 52.5754 36.0512 52.5513 36.1697C52.5473 36.1917 52.5593 36.2239 52.5794 36.2359C52.7139 36.3182 52.8645 36.2058 52.9689 36.1175C53.0994 36.007 53.1918 35.8625 53.262 35.7079C53.3303 35.5533 53.0873 35.4529 53.0211 35.6055ZM43.5465 32.1642C43.5887 32.0759 43.4542 32.0257 43.408 32.108C42.8438 33.0878 42.2535 34.0414 41.9162 35.1276C41.6612 35.9488 41.6331 36.9085 41.4946 37.7558C41.4725 37.8863 41.6412 37.9887 41.7436 37.9024C42.4262 37.3342 42.4202 36.6736 42.4362 35.8283C42.4603 34.5032 42.9763 33.3407 43.5465 32.1642ZM40.8481 38.5368C40.812 38.591 40.7638 38.6512 40.7116 38.6914C40.6875 38.7095 40.6554 38.7175 40.6273 38.7316C40.5971 38.7476 40.563 38.7737 40.5329 38.7858C40.4887 38.8038 40.4787 38.8661 40.5168 38.8962C40.569 38.9343 40.5951 38.9584 40.6594 38.9725C40.7236 38.9845 40.7939 38.9624 40.8501 38.9363C40.9846 38.8741 41.0449 38.7697 41.079 38.6332C41.1111 38.5087 40.9164 38.4344 40.8481 38.5368ZM73.8876 34.0916C72.9099 33.931 71.9381 34.0776 70.9603 34.1619C69.9585 34.2462 68.9446 34.172 67.9487 34.2723C67.8764 34.2804 67.8684 34.3808 67.9306 34.4089C68.7779 34.7863 69.8219 34.7201 70.7294 34.692C71.7996 34.6578 72.8918 34.5996 73.9057 34.2402C73.984 34.2141 73.9619 34.1037 73.8876 34.0916ZM76.046 33.9631C75.8914 33.7985 75.6545 33.7845 75.4557 33.8788C75.3653 33.921 75.2549 33.9852 75.2188 34.0796C75.2148 34.0816 75.2128 34.0836 75.2107 34.0856C75.1324 34.1358 75.1846 34.2543 75.267 34.2543C75.283 34.2663 75.3011 34.2784 75.3212 34.2864C75.3754 34.3045 75.4296 34.3225 75.4838 34.3406C75.6565 34.3948 75.8352 34.4129 75.9958 34.3205C76.1062 34.2543 76.1343 34.0575 76.046 33.9631ZM87.1549 30.8612C86.7031 30.6704 86.41 31.3691 86.8617 31.5579C87.3135 31.7486 87.6066 31.0519 87.1549 30.8612ZM90.6624 31.3551C90.2709 31.1925 90.0179 31.7948 90.4094 31.9574C90.7989 32.122 91.0519 31.5197 90.6624 31.3551ZM78.0296 30.6363C77.865 30.568 77.6722 30.6463 77.604 30.809C77.5357 30.9716 77.616 31.1643 77.7787 31.2326C77.9413 31.3009 78.134 31.2226 78.2023 31.0599C78.2706 30.8973 78.1923 30.7046 78.0296 30.6363ZM80.7642 32.8649C80.3747 32.7003 80.1217 33.3026 80.5112 33.4672C80.9027 33.6319 81.1557 33.0295 80.7642 32.8649ZM95.6597 19.5856C95.9006 19.688 96.0572 19.3146 95.8163 19.2142C95.5733 19.1118 95.4167 19.4853 95.6597 19.5856ZM90.7628 17.341C92.2485 15.9054 93.8828 15.2108 95.9588 15.4055C96.0652 15.4156 96.1174 15.2549 96.009 15.2188C93.8949 14.5141 92.0337 15.7468 90.6825 17.2587C90.6383 17.3069 90.7146 17.3872 90.7628 17.341ZM81.9749 8.83214C82.4206 7.51104 82.9506 6.15581 84.35 5.5836C84.4143 5.55549 84.3741 5.46514 84.3099 5.48321C82.9305 5.88075 81.9046 7.37652 81.76 8.77392C81.746 8.89639 81.9327 8.95662 81.9749 8.83214ZM83.6975 14.2069C83.6915 14.2651 83.7838 14.2932 83.7999 14.235C84.3299 12.4782 85.5768 11.4402 86.7272 10.1071C86.7714 10.0549 86.6991 9.9886 86.6449 10.0247C85.2113 11.0186 83.9204 12.426 83.6975 14.2069ZM76.7125 7.61544C76.7487 6.75412 76.841 5.98716 77.1161 5.15997C77.3068 4.58374 77.596 4.0296 77.7305 3.43732C77.7405 3.39114 77.6743 3.36705 77.6482 3.40118C76.837 4.45725 76.1825 6.2823 76.4395 7.61544C76.4676 7.76 76.7045 7.77807 76.7125 7.61544ZM71.8919 5.32661C71.92 5.3768 72.0124 5.36476 71.9983 5.2985C71.7454 4.19825 72.1449 2.66233 73.207 2.11019C73.2291 2.09614 73.2231 2.05599 73.193 2.06201C72.0224 2.27081 71.3579 4.36691 71.8919 5.32661ZM84.2095 21.8986C84.4223 21.9889 84.6753 21.8865 84.7636 21.6737C84.852 21.4629 84.7496 21.2099 84.5367 21.1216C84.3239 21.0312 84.0709 21.1336 83.9826 21.3464C83.8923 21.5573 83.9967 21.8082 84.2095 21.8986ZM73.1849 25.127C72.7593 24.9483 72.2553 25.1531 72.0766 25.5768C71.898 26.0004 72.1048 26.5044 72.5304 26.683C72.956 26.8617 73.462 26.659 73.6387 26.2333C73.8174 25.8097 73.6106 25.3077 73.1849 25.127ZM71.8357 15.277C72.0666 15.3734 72.3417 15.263 72.4401 15.0321V15.0301C72.5364 14.7992 72.424 14.5261 72.1931 14.4277C71.9602 14.3294 71.6851 14.4418 71.5868 14.6727C71.4904 14.9036 71.6028 15.1786 71.8357 15.277ZM68.9446 7.98487C69.2517 8.11537 69.6151 7.9668 69.7436 7.66363C69.8701 7.35845 69.7216 6.99505 69.4164 6.86655C69.1092 6.73806 68.7458 6.88462 68.6173 7.1898C68.4908 7.49498 68.6394 7.85637 68.9446 7.98487ZM48.0338 22.019C49.0578 22.4487 49.7224 20.8686 48.6984 20.4369C47.6724 20.0073 47.0079 21.5874 48.0338 22.019ZM52.3385 25.5989C51.4972 25.2455 50.9531 26.5425 51.7923 26.8959C52.6336 27.2492 53.1777 25.9522 52.3385 25.5989ZM60.1366 26.2213C60.0221 26.0707 59.7973 25.9542 59.6045 25.9984C59.5985 25.9984 59.5945 26.0004 59.5905 26.0004C59.3274 26.0606 59.1327 26.2233 59.0905 26.5003C59.0785 26.5746 59.0845 26.6509 59.0865 26.7252C59.0905 26.9099 59.2552 27.0886 59.4178 27.1569C59.5784 27.2251 59.8193 27.2171 59.9559 27.0906C59.9759 27.0725 59.994 27.0545 60.0181 27.0404C60.1486 26.9561 60.2309 26.7874 60.247 26.6369C60.261 26.4883 60.2269 26.3437 60.1366 26.2213ZM64.1701 19.8948C63.5216 19.6218 63.102 20.6237 63.7505 20.8967C64.399 21.1678 64.8206 20.1679 64.1701 19.8948ZM70.5427 24.2456C70.4825 24.2376 70.4243 24.2416 70.364 24.2497C70.358 24.2497 70.352 24.2497 70.346 24.2517C70.1231 24.2336 69.9163 24.3721 69.8862 24.603C69.8601 24.8038 70.0167 25.0608 70.2416 25.0628C70.3299 25.0628 70.4122 25.0648 70.4965 25.0467C70.7415 25.0005 70.8901 24.8399 70.884 24.5849C70.88 24.4123 70.7013 24.2657 70.5427 24.2456ZM43.4923 29.9557C43.5405 29.7228 43.3739 29.4778 43.165 29.3895C42.9582 29.3032 42.6651 29.3554 42.5326 29.5521C42.5206 29.5722 42.5065 29.5903 42.4945 29.6103C42.4121 29.6927 42.3559 29.7971 42.3479 29.9215C42.3479 29.9256 42.3479 29.9296 42.3459 29.9336C42.3218 30.052 42.3499 30.1705 42.4101 30.2729C42.4182 30.287 42.4302 30.301 42.4403 30.3151C42.4463 30.3271 42.4523 30.3371 42.4603 30.3472C42.4884 30.3833 42.5206 30.4175 42.5587 30.4476C42.5969 30.4777 42.643 30.5018 42.6912 30.5199C42.7374 30.5399 42.7856 30.558 42.8358 30.564C42.884 30.57 42.9301 30.568 42.9743 30.564C42.9864 30.562 42.9984 30.558 43.0125 30.556C43.0285 30.554 43.0466 30.552 43.0627 30.548C43.1771 30.5178 43.2815 30.4556 43.3498 30.3552C43.3518 30.3512 43.3538 30.3492 43.3578 30.3472C43.4401 30.2528 43.4762 30.1404 43.4783 30.0239C43.4823 30.0019 43.4863 29.9778 43.4923 29.9557ZM70.9383 32.4854C71.2615 32.62 71.643 32.4654 71.7775 32.1461C71.912 31.8249 71.7554 31.4454 71.4342 31.3089C71.1109 31.1744 70.7294 31.329 70.5949 31.6482C70.4604 31.9694 70.617 32.3509 70.9383 32.4854ZM85.0788 32.2365C85.0487 32.2184 85.0166 32.2003 84.9845 32.1843C84.86 32.0297 84.6452 31.9594 84.4444 32.0357C84.4323 32.0397 84.4203 32.0437 84.4082 32.0478C84.3038 32.0819 84.2155 32.1803 84.1733 32.2786C84.1091 32.4312 84.1493 32.5658 84.2276 32.7023C84.2336 32.7163 84.2416 32.7284 84.2496 32.7404C84.3721 32.9332 84.6191 32.9633 84.8098 32.879C84.854 32.8749 84.8961 32.8729 84.9383 32.8689C85.0447 32.8609 85.119 32.8268 85.2053 32.7685C85.2696 32.7244 85.3198 32.622 85.2997 32.5417C85.2656 32.4011 85.2113 32.3128 85.0788 32.2365ZM97.1133 27.8134C96.6314 27.6126 96.3202 28.3535 96.8001 28.5563C97.2819 28.7591 97.5931 28.0162 97.1133 27.8134ZM95.2682 30.1765C94.6197 29.9055 94.2 30.9053 94.8485 31.1784C95.4971 31.4515 95.9167 30.4496 95.2682 30.1765ZM99.641 27.6026C99.4282 27.5745 99.2295 27.7271 99.2014 27.9379C99.1732 28.1527 99.3218 28.3274 99.5246 28.3736C99.6993 28.4137 99.886 28.3033 99.9523 28.1427C100.053 27.9078 99.894 27.6347 99.641 27.6026ZM100.966 30.034C99.633 32.0217 97.9104 33.1841 95.7621 34.0133C95.7279 34.0937 95.6597 34.1639 95.5533 34.2061C94.437 34.6337 93.0416 34.6177 91.869 34.7221C89.5561 34.9309 87.2392 35.0895 84.9242 35.2361C79.4993 35.5794 74.0683 35.8785 68.6354 36.0934C67.4448 36.1375 66.2522 36.1596 65.0596 36.1636C64.9973 37.2217 65.0475 38.2979 65.0515 39.372C65.0616 41.2593 64.8046 43.4718 63.1622 44.6865C62.319 45.3089 60.769 46.1783 59.8836 45.1222C59.1287 44.2187 59.1969 42.7892 59.2552 41.693C59.3375 40.1289 59.5222 38.7175 59.3054 37.1454C59.2592 36.8021 59.215 36.4588 59.1889 36.1175C58.1127 36.0994 57.0326 36.0833 55.9584 36.0773C55.7115 36.0753 55.4665 36.0753 55.2196 36.0773C55.0951 36.4969 54.9164 36.9025 54.6634 37.282C53.9868 38.2979 52.8263 38.4344 51.7321 38.0047C50.674 37.5871 50.0034 36.9406 49.6983 36.0693C48.9574 36.0452 48.2186 36.005 47.4797 35.9307C46.249 35.8103 45.0162 35.6476 43.7834 35.7019C43.7232 35.9227 43.671 36.1496 43.6288 36.3865C43.3417 38.0088 43.1269 40.2093 41.3099 40.9059C39.8302 41.4741 38.0071 40.6108 37.4389 39.1231C36.7684 37.3683 37.4048 35.5111 37.3365 33.7062C37.2944 32.628 37.1619 31.4414 37.5454 30.4074C37.8646 29.5481 38.5974 28.9659 39.0672 28.225C39.0512 28.1527 39.0592 28.0704 39.1094 27.9841C39.6977 26.9541 39.8964 25.9442 40.7658 25.0688C41.1653 24.6632 41.5649 24.2517 41.9704 23.8521C41.9865 23.834 42.0447 23.7738 42.0588 23.7578C42.4242 23.3582 42.7836 22.9587 43.153 22.5631C44.8375 20.7662 46.6124 19.0516 48.4655 17.4293C54.806 11.8759 62.0058 7.28617 69.838 4.11192C69.575 3.17029 69.838 2.22664 70.5487 1.48378C72.0365 -0.0682139 75.4175 -0.383431 76.5459 1.71065C77.353 1.14647 78.6199 1.05412 79.4732 1.17057C80.6136 1.33119 83.039 1.93351 83.5289 3.22048C83.6092 3.20442 83.6875 3.19036 83.7618 3.18233C84.8801 3.07994 86.0044 3.55377 86.9661 4.0818C88.1206 4.71625 89.2449 5.45912 90.1665 6.40477C90.8009 7.05729 91.4976 8.29406 91.2346 9.25578C92.8167 9.28188 94.4109 10.1512 95.6276 11.2113C96.5873 12.0486 97.4887 13.0424 98.0228 14.2089C98.4203 15.0803 99.362 16.9635 98.2517 17.6743C99.4262 18.2465 100.444 19.2002 101.115 20.2763C101.787 21.3525 102.245 22.517 102.568 23.7417C102.781 24.5488 103.197 26.2273 102.205 26.665C102.173 26.679 102.139 26.6851 102.105 26.6851C102.177 27.7913 101.687 28.9598 100.966 30.034ZM70.7214 3.94729C70.7214 3.94929 70.7214 3.9513 70.7214 3.9513C70.8218 4.0296 70.88 4.15609 70.88 4.28258C71.2294 4.91502 71.8056 5.45511 72.4842 5.70808C72.7211 5.79642 72.9721 5.84461 73.2231 5.88276C72.7974 4.87687 73.201 3.4855 73.98 2.76874C74.0342 2.71854 74.1246 2.79283 74.0944 2.85708C73.6045 3.86095 73.3636 4.73432 73.7531 5.82252C73.7732 5.87673 73.7752 5.92492 73.7672 5.96909C73.972 6.00724 74.1747 6.05342 74.3635 6.12971C74.4639 5.61372 74.7229 5.12784 75.1766 4.72228C75.2047 4.69818 75.2449 4.73432 75.2308 4.76645C74.5321 6.31041 75.0863 7.91259 76.3471 9.02288C76.7567 9.38226 77.2366 9.72157 77.7546 9.94243C77.4052 8.72171 77.6883 7.1898 78.4472 6.2562C78.4613 6.23813 78.4994 6.24415 78.4994 6.27025C78.5115 6.87057 78.2685 7.47089 78.2083 8.0692C78.128 8.83616 78.1902 9.51879 78.5577 10.1733C78.913 10.2175 79.2724 10.1733 79.6258 10.1713C79.7463 9.52481 80.0615 8.91647 80.6056 8.39847C80.6799 8.32619 80.7883 8.4326 80.7561 8.51692C80.5253 9.10921 80.4088 9.7296 80.4068 10.344C80.4289 10.3922 80.4349 10.4484 80.4128 10.4925L80.4088 10.5006C80.4369 11.4282 80.7341 12.3397 81.3284 13.1207C81.5613 13.4279 81.8203 13.715 82.0993 13.974C82.1415 13.3917 82.3242 12.7734 82.4467 12.4802C82.8904 11.4061 83.6614 10.1171 84.8319 9.72157C84.9182 9.69146 85.0005 9.81393 84.9142 9.86814C84.0067 10.4484 83.3221 11.4683 82.9386 12.4601C82.7298 13.0022 82.525 13.6327 82.6113 14.2229C82.6234 14.2952 82.6414 14.3655 82.6635 14.4358C82.8261 14.5502 82.9968 14.6566 83.1735 14.753C83.6814 15.0281 84.2958 15.1204 84.7496 15.4477C84.9885 14.5683 85.6611 13.8555 86.9159 13.5744C86.9621 13.5644 86.9942 13.6387 86.9521 13.6648C85.4262 14.5442 85.113 16.1343 85.8839 17.6803C86.2233 18.3589 86.7131 19.1038 87.3536 19.5375C87.442 19.5977 87.5343 19.6499 87.6247 19.6981C87.3958 18.9532 87.6407 17.9935 87.9841 17.339C88.6165 16.1323 89.9155 15.1686 91.0941 14.5382C91.1523 14.506 91.2105 14.5924 91.1703 14.6406C90.4877 15.4417 89.5601 16.0219 88.9518 16.8872C88.5 17.5317 88.1125 18.3469 88.235 19.164C88.2812 19.4612 88.3475 19.7443 88.4017 20.0314C88.6566 20.1297 88.9076 20.2342 89.1445 20.3767C89.1506 20.3787 89.1526 20.3827 89.1546 20.3847C89.526 19.8206 90.1906 19.3748 90.6664 19.0295C90.6925 19.0114 90.7206 19.0415 90.7046 19.0676C90.1605 19.8989 89.5822 20.708 89.791 21.752C89.9356 22.4788 90.2488 23.1795 90.6283 23.818C90.6202 22.6856 91.3852 21.2702 91.9795 20.6638C92.0156 20.6257 92.0819 20.6477 92.0758 20.704C92.0056 21.4529 91.588 22.1335 91.4273 22.8643C91.2828 23.5269 91.4474 24.2015 91.3069 24.8399C91.5257 25.1431 91.7526 25.4382 91.9875 25.7314C92.2505 26.0627 92.646 26.3558 92.9693 26.677C93.3046 25.5567 94.5394 24.1653 95.0172 23.832C96.786 22.6013 99.2074 23.0229 100.834 24.3601C101.33 24.7677 101.665 25.2154 101.866 25.6832C101.896 25.5266 101.92 25.364 101.906 25.1812C101.86 24.593 101.725 24.0368 101.552 23.4727C101.498 23.296 101.44 23.1193 101.38 22.9446C101.241 22.784 101.099 22.6234 100.932 22.4868C100.474 22.1094 99.9824 21.7721 99.4383 21.5271C98.2959 21.0132 97.0129 20.6879 95.754 20.724C95.5733 20.7281 95.5312 20.4691 95.7159 20.441C97.0651 20.2422 98.4183 20.4169 99.6651 20.9931C99.9944 21.1437 100.418 21.3505 100.834 21.6034C100.627 21.1818 100.388 20.7762 100.101 20.4028C98.7376 18.6239 96.8904 18.1541 94.9128 17.355C94.8405 17.3269 94.8646 17.2346 94.9309 17.2185C95.8605 17.0097 96.7961 17.1101 97.6654 17.4273C97.6634 17.4173 97.6654 17.4092 97.6654 17.3992C97.7277 16.6443 97.8883 16.1504 97.567 15.3975C97.3643 14.9136 97.1494 14.4137 96.8623 13.972C96.6876 13.7049 96.5009 13.448 96.3022 13.199C95.487 12.8818 94.9269 12.1128 94.0013 11.9723C93.15 11.8438 92.2746 11.906 91.4193 11.9582C91.2266 11.9703 91.1844 11.6852 91.3792 11.6591C92.4131 11.5185 93.409 11.1872 94.451 11.5004C94.5012 11.5165 94.5494 11.5346 94.5996 11.5526C93.0054 10.3661 90.8772 9.47261 88.9076 10.0669C88.8474 10.085 88.7912 10.0067 88.8494 9.96652C89.3674 9.61115 89.9095 9.40234 90.4616 9.30999C90.3532 9.01685 90.3552 8.72573 90.2709 8.38642C90.1203 7.78209 89.8272 7.30826 89.3714 6.88663C89.1104 6.64369 88.8373 6.41481 88.5563 6.19396C88.5221 6.1779 88.488 6.16384 88.4539 6.1538C88.0965 6.03133 87.719 5.95905 87.3416 5.93094C86.922 5.90283 86.3839 5.88075 85.9843 6.0494C85.7534 6.14778 85.5948 6.37666 85.3639 6.44493C85.3419 6.45095 85.3218 6.44292 85.3117 6.42083C84.9845 5.70206 86.8075 5.40692 87.181 5.39889C87.2492 5.39889 87.3355 5.39889 87.4319 5.4009C87.3536 5.3507 87.2773 5.2985 87.197 5.25032C86.3919 4.76645 85.4663 4.24845 84.5267 4.09787C83.6473 3.95732 82.2238 4.08984 81.7379 4.93711C81.6978 5.00939 81.5894 4.9873 81.5934 4.89896C81.6396 4.34884 82.1214 3.86296 82.6776 3.55176C82.4386 3.40118 82.2098 3.21446 81.9789 3.03778C81.4408 3.16025 80.9569 3.48952 80.4128 3.71639C80.3185 3.75454 80.2442 3.64211 80.2984 3.56581C80.5393 3.22851 80.9569 2.88719 81.4207 2.66835C81.3806 2.64827 81.3424 2.62619 81.3023 2.60812C80.7481 2.36116 80.1679 2.18448 79.5656 2.10016C78.1862 1.9054 77.0478 1.99174 75.9215 2.82495C75.8773 2.85909 75.801 2.82094 75.8131 2.76271C75.8934 2.39529 76.0821 2.10216 76.3391 1.87328C74.8975 0.80315 72.8617 0.676661 71.4161 1.91544C70.8158 2.43143 70.4464 3.18033 70.7214 3.94729ZM49.5256 35.2662C49.4995 34.9931 49.4995 34.702 49.5276 34.3948C49.6139 33.395 49.9653 32.2345 49.618 31.2547C49.1843 30.036 47.8471 29.0502 46.6886 30.1565C45.8675 30.9395 45.5121 32.0417 44.97 33.0095C44.6066 33.656 44.2854 34.2683 44.0384 34.9188C44.8837 34.8967 45.737 34.9931 46.5782 35.0754C47.568 35.1718 48.5458 35.23 49.5256 35.2662ZM59.1608 35.3545C59.1668 34.8486 59.227 34.3466 59.3816 33.8487C59.6567 32.9633 60.5642 31.4314 60.1687 30.4998C59.6969 29.3875 57.1631 29.1967 56.2736 30.1042C55.4786 31.6884 55.7095 33.5957 55.4003 35.3184C56.6531 35.3244 57.9059 35.3405 59.1608 35.3545ZM64.3287 35.3766C64.3388 35.3083 64.3488 35.2401 64.3589 35.1718C64.6199 33.5154 65.182 31.7767 66.5774 30.7166C67.9728 29.6565 69.7617 29.3072 71.4984 29.1847C71.5305 29.1727 71.5707 29.1646 71.6109 29.1626C73.4118 29.0723 75.2148 29.1847 77.0157 29.2148C78.9552 29.251 80.8525 29.0321 82.786 28.9578C84.7757 28.8815 86.7653 28.9237 88.753 28.99C90.0801 29.0321 92.4553 29.4979 93.4311 28.3194V28.3174C93.4351 28.223 93.4271 28.1065 93.411 27.9881C93.3528 27.978 93.2946 27.956 93.2343 27.9158C93.1761 27.8736 93.1259 27.8275 93.0817 27.7793C92.2606 27.7211 91.598 26.6971 91.1282 26.1108C90.5198 25.3499 89.9476 24.5388 89.52 23.6614C89.1305 22.8663 88.7851 21.9789 88.8875 21.0794C88.8895 21.0654 88.8895 21.0553 88.8936 21.0413C88.8835 21.0453 88.8735 21.0433 88.8634 21.0433C86.5686 20.977 84.5669 18.2726 84.6512 16.1102C83.8882 16.3712 82.8382 15.6545 82.2419 15.2429C81.4047 14.6626 80.722 13.9298 80.2121 13.0484C79.8507 12.43 79.6278 11.7574 79.5776 11.0949C79.0576 11.2113 78.4352 11.1069 77.9774 10.9644C76.9856 10.6512 76.064 10.103 75.3754 9.314C74.7871 8.6394 74.3675 7.74394 74.3153 6.86455C73.466 7.13961 72.3176 6.67381 71.5968 6.27025C71.0125 5.94299 70.4725 5.41094 70.1331 4.81463C62.4314 7.93668 55.322 12.4401 49.0839 17.9032C47.2267 19.5294 45.4398 21.232 43.7573 23.037C43.3879 23.4325 43.0285 23.832 42.6631 24.2316C42.3198 24.603 41.9564 24.9504 41.601 25.3077C41.1051 25.8077 40.6112 26.3156 40.3662 26.9902C40.2859 27.2071 40.2116 27.4179 40.1253 27.6267V27.6287C40.1354 27.6869 40.1313 27.7492 40.1133 27.8134C39.7659 28.9618 38.5814 29.5662 38.2541 30.7046C37.9268 31.8349 38.0975 33.0175 38.1055 34.176C38.1196 35.8384 37.196 38.4525 38.7701 39.6973C39.7157 40.4442 40.9746 40.6249 41.8018 39.6029C42.5266 38.7095 42.623 37.6795 42.8157 36.5833C42.8719 36.2721 42.9402 35.9649 43.0225 35.6617C43.0225 35.6597 43.0225 35.6597 43.0245 35.6577C43.4883 33.9049 44.3577 32.2606 45.2993 30.7126C46.2088 29.2208 47.9395 28.219 49.4794 29.5742C50.9471 30.8732 50.395 32.8248 50.2885 34.4932C50.2464 35.1457 50.3126 35.74 50.5837 36.2239C50.7945 36.6013 51.1278 36.9145 51.6317 37.1354C52.2039 37.3864 53.0552 37.7217 53.6294 37.286C54.023 36.9848 54.2679 36.5351 54.4265 36.0331C54.6735 35.2421 54.7076 34.3165 54.7678 33.6158C54.8682 32.5015 54.9264 31.4414 55.2979 30.4215C55.2838 30.3572 55.2858 30.2849 55.3119 30.2087C55.3882 29.9878 55.5087 29.793 55.6633 29.6244C55.6633 29.6244 55.6653 29.6224 55.6673 29.6204C55.6974 29.5742 55.7336 29.5401 55.7737 29.514L55.7757 29.512C56.0126 29.2951 56.3058 29.1365 56.617 29.0401C57.8116 28.6727 59.5784 28.6607 60.514 29.6465C61.8411 31.0479 60.1185 33.2484 59.9599 34.7642C59.9077 35.2762 59.9257 35.7862 59.9759 36.2921C60.0562 37.1354 60.2149 37.9746 60.241 38.8259C60.257 39.3158 60.1767 39.8117 60.1325 40.2976C60.0141 41.5283 59.7069 43.1988 60.2932 44.3593C60.6405 45.0499 61.3492 44.8733 61.9335 44.5641C63.0518 43.9718 63.8248 42.998 64.0798 41.7492C64.5094 39.6411 64.0477 37.4908 64.3287 35.3766ZM101.38 26.406C101.374 26.3678 101.364 26.3297 101.352 26.2935C101.281 26.0305 101.151 25.7775 100.954 25.5406C99.9241 24.3139 97.7236 23.3522 96.1616 24.0529C95.3726 24.4083 94.708 25.0387 94.2924 25.8016C94.2603 25.8579 94.1739 26.0145 94.0715 26.2052C94.0796 26.2634 94.0776 26.3216 94.0595 26.3839C93.8909 26.9621 94.2422 27.7813 94.188 28.4378C94.192 28.49 94.184 28.5462 94.1639 28.6004L94.1599 28.6085C94.1157 28.8173 94.0173 29.008 93.8266 29.1586C93.7423 29.2269 93.6539 29.2489 93.5696 29.2389C92.7464 29.8292 91.598 29.8392 90.5821 29.8071C88.3434 29.7408 86.1008 29.6304 83.8621 29.6846C81.8524 29.7328 79.8627 29.9978 77.8509 29.9858C76.0299 29.9737 74.2069 29.8513 72.3878 29.8954C72.3818 29.8954 72.3738 29.8975 72.3658 29.8975C71.8116 29.9215 71.2675 29.9758 70.7194 30.044C68.7438 30.2849 66.7039 30.9555 65.8044 32.885C65.425 33.7021 65.2262 34.5394 65.1238 35.3927C65.5314 35.3907 65.937 35.3886 66.3425 35.3826C71.2715 35.3264 76.2066 34.9871 81.1236 34.702C84.1814 34.5253 87.2392 34.3406 90.293 34.0916C91.3932 34.0013 92.4955 33.9089 93.5957 33.7784C93.9089 33.7423 94.2563 33.7162 94.5855 33.666C94.6217 33.6278 94.6719 33.5957 94.7341 33.5736C96.6073 32.9372 98.4484 32.12 99.6792 30.5098C100.462 29.4899 101.683 27.8154 101.38 26.406ZM78.2826 16.0299C78.3328 16.0179 78.391 16.0199 78.4533 16.05C78.5215 16.0821 78.5898 16.1142 78.6601 16.1484C78.6902 16.1564 78.7223 16.1665 78.7524 16.1765C78.7986 16.1885 78.8327 16.2146 78.8588 16.2407C80.0032 16.7788 81.3123 17.4735 81.746 18.7063C82.2098 20.0213 82.0491 21.3846 81.0332 22.4106C78.8749 24.591 75.2168 24.611 72.5826 23.2398C70.3781 22.0953 68.6153 19.5636 70.5267 17.2988C72.4722 14.9959 75.6324 15.2469 78.2826 16.0299ZM71.0928 17.4775C69.32 19.5776 70.8057 21.8885 73.0384 22.8543C75.2569 23.814 78.3649 24.1111 80.2904 22.3684C81.3565 21.4047 81.9548 19.8206 81.0352 18.5135C80.3968 17.602 79.427 17.1081 78.4452 16.6483C76.1303 15.9075 72.8697 15.3734 71.0928 17.4775ZM86.9159 23.1454C87.0163 23.1293 87.0926 23.1615 87.1448 23.2177C87.2532 23.2297 87.3536 23.302 87.3737 23.4425C87.4661 24.1031 87.203 24.6914 86.9119 25.2716C86.6529 25.7936 86.4441 26.4762 86.0185 26.8979C85.2696 27.6347 84.2015 27.3657 83.5068 26.661C81.8243 24.9524 85.7314 23.3482 86.9159 23.1454ZM83.7256 26.0305C83.9786 26.4923 84.7757 27.0464 85.3258 26.7533C85.6852 26.5626 85.8699 26.1751 86.0385 25.8298C86.3457 25.1953 86.8437 24.4504 86.8437 23.7176C85.9281 23.9405 83.1675 25.0267 83.7256 26.0305ZM80.0093 26.3056C80.0695 26.3277 80.1197 26.3799 80.1438 26.4642C80.3927 27.3536 79.674 28.221 78.7484 28.229C77.9975 28.237 77.2787 27.8556 76.8752 27.2171C76.5298 26.671 76.6041 25.9402 77.2607 25.6772C78.1862 25.3017 79.3066 25.627 80.0093 26.3056ZM77.7465 26.0988C77.3028 26.1891 77.0699 26.4602 77.3129 26.8898C77.5297 27.2733 77.9754 27.5986 78.4131 27.6648C78.9813 27.7512 79.8005 27.3998 79.6439 26.7132C79.1459 26.2454 78.4312 25.9582 77.7465 26.0988ZM66.7541 27.0806C65.9349 27.5504 64.8508 27.5725 64.0115 27.1207C63.2887 26.7352 63.0739 25.9402 63.6943 25.3459C64.646 24.4324 66.1899 24.1734 67.3926 24.6893C67.4227 24.6974 67.4548 24.7134 67.4849 24.7355L67.4909 24.7375C67.493 24.7416 67.497 24.7436 67.499 24.7436C68.4426 25.5025 67.5371 26.6288 66.7541 27.0806ZM67.1818 25.1913C66.214 24.7817 64.9853 24.9524 64.1782 25.641C63.7144 26.0386 63.8268 26.4602 64.3769 26.6971C64.9371 26.938 65.6338 26.9882 66.204 26.7453C66.6698 26.5465 67.8042 25.7334 67.1818 25.1913ZM62.4415 22.4607C62.2327 23.5871 61.3071 24.7014 60.2108 25.0648C59.0042 25.4663 57.7152 25.3499 56.5005 25.0287C54.8341 24.587 53.1315 24.2737 51.6378 23.3682C51.5615 23.3221 51.5273 23.2598 51.5213 23.1956C49.7384 21.5171 51.2402 18.911 53.2701 18.1842C54.6554 17.6903 56.1492 17.7606 57.5646 18.116C58.7874 18.4191 60.2189 18.7745 61.2268 19.5716C62.1523 20.3004 62.6603 21.2762 62.4415 22.4607ZM60.7128 19.8748C59.0182 18.7986 56.3299 18.0638 54.3422 18.4533C52.5011 18.8147 49.891 21.1276 51.9971 22.8904C52.0353 22.9225 52.0614 22.9607 52.0775 22.9988C53.3905 23.7638 54.8903 24.0429 56.3459 24.4263C57.2655 24.6713 58.2714 24.8921 59.223 24.7456C61.6002 24.3802 63.0719 21.3746 60.7128 19.8748ZM64.2444 18.2947C61.8853 18.4874 59.213 17.5538 58.6589 14.9759C57.914 11.5145 61.8291 9.51277 64.7223 9.2096C64.8146 9.20157 64.8889 9.23168 64.9391 9.28388C66.6136 9.35817 68.3804 9.98459 69.2538 11.5065C69.8139 12.4842 70.1512 13.5905 69.7738 14.6968C69.0249 16.9073 66.4369 18.112 64.2444 18.2947ZM69.1072 14.8996C69.5007 14.0162 69.4626 13.0585 69.0128 12.1951C68.1294 10.4905 66.3867 9.78381 64.5335 9.81594C64.4974 9.81594 64.4633 9.80992 64.4331 9.79988C61.8271 10.2115 57.9923 12.2092 59.3495 15.3513C60.2028 17.3269 62.323 17.9935 64.3468 17.7325C66.1197 17.5056 68.3282 16.6503 69.1072 14.8996ZM71.1089 9.85408C71.2575 8.77592 72.3858 8.41654 73.3275 8.71569C73.3476 8.7177 73.3676 8.72573 73.3877 8.73376C73.4118 8.74179 73.4299 8.75183 73.4479 8.76187C74.3976 9.19755 75.2429 10.4604 74.6948 11.4743C74.2591 12.2794 73.1669 12.2855 72.4561 11.8799C71.7695 11.4884 70.9905 10.7254 71.1089 9.85408ZM71.7072 10.3139C71.896 10.7977 72.2975 11.2173 72.7753 11.4342C73.2291 11.635 74.0362 11.7594 74.2571 11.133C74.5281 10.3801 73.8495 9.51678 73.1769 9.2357C72.4581 8.98272 71.3498 9.40234 71.7072 10.3139ZM77.092 12.5324C77.5578 12.0506 78.3007 11.9301 78.9171 12.163C78.9552 12.1791 78.9873 12.1991 79.0114 12.2232C79.0716 12.2453 79.1259 12.2855 79.164 12.3537C79.3668 12.7232 79.6639 13.0585 79.688 13.4961C79.7081 13.8174 79.4893 14.1667 79.2202 14.3334C78.6922 14.6586 77.7224 14.8112 77.2326 14.3113C76.7266 13.7933 76.5459 13.0946 77.092 12.5324ZM77.6281 13.9318C77.9895 14.1667 78.64 14.1306 78.9612 13.8435C79.3467 13.4961 78.9552 13.0324 78.7243 12.673C78.7183 12.669 78.7123 12.669 78.7062 12.6669C78.3167 12.5204 77.8429 12.5826 77.5297 12.8657C77.1944 13.1709 77.2366 13.6728 77.6281 13.9318ZM48.07 27.1448C47.1022 27.5564 45.8233 27.5825 44.8917 27.0505C43.9661 26.5184 44.1569 25.5587 44.8857 24.9423C45.8675 24.1151 47.7307 23.3923 48.9775 24.0629C49.0277 24.0669 49.0819 24.087 49.1321 24.1332C49.1522 24.1513 49.1622 24.1714 49.1803 24.1894C49.2084 24.2075 49.2345 24.2256 49.2606 24.2476C49.3248 24.2978 49.3549 24.3581 49.361 24.4203C49.9633 25.388 49.0397 26.7332 48.07 27.1448ZM48.8651 24.6371C47.8933 23.9485 46.1405 24.599 45.3254 25.2877C44.7712 25.7555 44.5444 26.3457 45.3495 26.673C46.0201 26.942 46.8573 26.9882 47.546 26.7593C48.2386 26.5284 49.5417 25.4202 48.8651 24.6371ZM54.4506 14.759C55.0429 14.1928 56.0689 13.8355 56.8378 14.2491C56.8619 14.2631 56.882 14.2772 56.9001 14.2932C56.9543 14.3053 57.0065 14.3314 57.0506 14.3796C58.3477 15.7488 56.0006 17.4133 54.6735 16.7126C53.8784 16.2909 53.8342 15.3453 54.4506 14.759ZM55.0369 16.2809C55.8701 16.57 57.396 15.6545 56.6692 14.7691C56.6551 14.765 56.6411 14.759 56.627 14.751C56.0909 14.4639 55.3661 14.6867 54.9264 15.0642C54.5008 15.4276 54.3944 16.058 55.0369 16.2809ZM67.8925 22.2017C67.3384 22.529 66.5112 22.6475 65.9329 22.3102C65.2503 21.9146 65.2101 20.9529 65.9088 20.5474C66.4971 20.206 67.6315 19.9912 68.021 20.7301C68.553 21.1838 68.5169 21.8303 67.8925 22.2017ZM67.6355 21.1176C67.6355 21.1156 67.6335 21.1156 67.6315 21.1135C67.6235 21.1055 67.6134 21.0955 67.6054 21.0874C67.5954 21.0794 67.5893 21.0694 67.5813 21.0613C67.5813 21.0613 67.5813 21.0613 67.5813 21.0593C67.5672 21.0413 67.5552 21.0212 67.5492 21.0011C67.3464 20.5433 66.4007 20.8365 66.1257 21.0613C65.7703 21.3525 65.9831 21.7982 66.3766 21.9126C66.8143 22.0411 68.4185 21.7299 67.6355 21.1176Z" fill="#660C0C"/>
</g>
</g>
</g>
</g>
<path d="M31.9921 74.47C31.729 74.47 31.4781 74.4338 31.2371 74.3656C30.9962 74.2973 30.7995 74.205 30.6509 74.0925L30.9079 73.5143C31.0524 73.6227 31.2211 73.707 31.4138 73.7713C31.6066 73.8315 31.7993 73.8596 31.9921 73.8596C32.2109 73.8596 32.3715 73.8275 32.4739 73.7633C32.5743 73.699 32.6265 73.6147 32.6265 73.5063C32.6265 73.432 32.5944 73.3677 32.5301 73.3135C32.4699 73.2613 32.3936 73.2212 32.2972 73.1931C32.2049 73.1609 32.0764 73.1268 31.9117 73.0887C31.6648 73.0304 31.462 72.9722 31.3014 72.912C31.1408 72.8477 31.0042 72.7514 30.8918 72.6229C30.7794 72.4903 30.7232 72.3157 30.7232 72.1008C30.7232 71.9081 30.7734 71.7354 30.8757 71.5788C30.9761 71.4242 31.1327 71.3018 31.3415 71.2094C31.5504 71.1191 31.8033 71.0729 32.1045 71.0729C32.3133 71.0729 32.5161 71.101 32.7148 71.1532C32.9176 71.2014 33.0943 71.2716 33.2449 71.362L33.012 71.9402C32.7068 71.7696 32.4016 71.6832 32.0965 71.6832C31.8877 71.6832 31.731 71.7194 31.6307 71.7876C31.5283 71.8579 31.4781 71.9483 31.4781 72.0607C31.4781 72.1731 31.5343 72.2574 31.6467 72.3096C31.7632 72.3639 31.9439 72.4181 32.1848 72.4703C32.4358 72.5305 32.6426 72.5907 32.8032 72.655C32.9638 72.7152 33.1003 72.8076 33.2128 72.9361C33.3252 73.0605 33.3814 73.2312 33.3814 73.4501C33.3814 73.6388 33.3272 73.8094 33.2208 73.964C33.1184 74.1206 32.9638 74.2431 32.755 74.3335C32.5462 74.4238 32.2912 74.47 31.9921 74.47Z" fill="#660C0C"/>
<path d="M37.7069 74.47C37.2351 74.47 36.8677 74.3416 36.6067 74.0846C36.3497 73.8236 36.2212 73.4501 36.2212 72.9682V71.1292H36.9841V72.9442C36.9841 73.5284 37.2271 73.8195 37.715 73.8195C37.9499 73.8195 38.1286 73.7513 38.253 73.6107C38.3815 73.4662 38.4458 73.2453 38.4458 72.9442V71.1292H39.1927V72.9682C39.1927 73.4501 39.0601 73.8236 38.7991 74.0846C38.5422 74.3416 38.1767 74.47 37.7069 74.47Z" fill="#660C0C"/>
<path d="M44.7035 72.7032C44.8902 72.7675 45.0347 72.8699 45.1371 73.0084C45.2435 73.1429 45.2978 73.3116 45.2978 73.5144C45.2978 73.8035 45.1853 74.0263 44.9605 74.1809C44.7396 74.3375 44.4164 74.4138 43.9887 74.4138H42.2861V71.1292H43.8923C44.2939 71.1292 44.6011 71.2075 44.8159 71.362C45.0287 71.5126 45.1371 71.7194 45.1371 71.9804C45.1371 72.1411 45.097 72.2856 45.0167 72.4141C44.9404 72.5386 44.836 72.635 44.7035 72.7032ZM43.041 71.6994V72.4784H43.804C43.9907 72.4784 44.1333 72.4462 44.2296 72.382C44.326 72.3137 44.3742 72.2133 44.3742 72.0848C44.3742 71.9563 44.326 71.86 44.2296 71.7957C44.1333 71.7315 43.9907 71.6994 43.804 71.6994H43.041ZM43.9325 73.8436C44.1292 73.8436 44.2798 73.8115 44.3822 73.7473C44.4826 73.679 44.5348 73.5766 44.5348 73.4421C44.5348 73.169 44.334 73.0325 43.9325 73.0325H43.041V73.8436H43.9325Z" fill="#660C0C"/>
<path d="M48.2188 71.1292H48.9817V74.4138H48.2188V71.1292Z" fill="#660C0C"/>
<path d="M54.1991 74.4138L53.5647 73.4983H52.866V74.4138H52.103V71.1292H53.5245C53.8176 71.1292 54.0726 71.1773 54.2875 71.2737C54.5003 71.3701 54.6649 71.5106 54.7774 71.6913C54.8938 71.868 54.954 72.0808 54.954 72.3258C54.954 72.5667 54.8938 72.7755 54.7774 72.9522C54.6589 73.1289 54.4923 73.2654 54.2794 73.3618L55.0183 74.4138H54.1991ZM54.1831 72.3258C54.1831 72.139 54.1228 71.9965 54.0064 71.9001C53.8879 71.7997 53.7132 71.7475 53.4844 71.7475H52.866V72.896H53.4844C53.7132 72.896 53.8879 72.8458 54.0064 72.7434C54.1228 72.643 54.1831 72.5025 54.1831 72.3258Z" fill="#660C0C"/>
<path d="M64.1137 73.8035V74.4138H61.5679V71.1292H64.0495V71.7395H62.3228V72.4543H63.8487V73.0405H62.3228V73.8035H64.1137Z" fill="#660C0C"/>
<path d="M70.0476 74.4138V72.4462L69.0839 74.0685H68.7385L67.7748 72.4864V74.4138H67.0601V71.1292H67.6945L68.9233 73.169L70.1279 71.1292H70.7543L70.7623 74.4138H70.0476Z" fill="#660C0C"/>
<path d="M78.6405 74.47C78.3775 74.47 78.1265 74.4338 77.8856 74.3656C77.6446 74.2973 77.4479 74.205 77.2993 74.0925L77.5563 73.5143C77.7009 73.6227 77.8695 73.707 78.0623 73.7713C78.255 73.8315 78.4477 73.8596 78.6405 73.8596C78.8593 73.8596 79.02 73.8275 79.1224 73.7633C79.2227 73.699 79.2749 73.6147 79.2749 73.5063C79.2749 73.432 79.2428 73.3677 79.1786 73.3135C79.1183 73.2613 79.042 73.2212 78.9457 73.1931C78.8533 73.1609 78.7248 73.1268 78.5602 73.0887C78.3132 73.0304 78.1104 72.9722 77.9498 72.912C77.7892 72.8477 77.6527 72.7514 77.5402 72.6229C77.4278 72.4903 77.3716 72.3157 77.3716 72.1008C77.3716 71.9081 77.4218 71.7354 77.5242 71.5788C77.6246 71.4242 77.7812 71.3018 77.99 71.2094C78.1988 71.1191 78.4518 71.0729 78.7529 71.0729C78.9617 71.0729 79.1645 71.101 79.3633 71.1532C79.5661 71.2014 79.7427 71.2716 79.8933 71.362L79.6604 71.9402C79.3553 71.7696 79.0501 71.6832 78.7449 71.6832C78.5361 71.6832 78.3795 71.7194 78.2791 71.7876C78.1767 71.8579 78.1265 71.9483 78.1265 72.0607C78.1265 72.1731 78.1827 72.2574 78.2952 72.3096C78.4116 72.3639 78.5923 72.4181 78.8332 72.4703C79.0842 72.5305 79.291 72.5907 79.4516 72.655C79.6122 72.7152 79.7488 72.8076 79.8612 72.9361C79.9736 73.0605 80.0299 73.2312 80.0299 73.4501C80.0299 73.6388 79.9756 73.8094 79.8692 73.964C79.7668 74.1206 79.6122 74.2431 79.4034 74.3335C79.1946 74.4238 78.9396 74.47 78.6405 74.47Z" fill="#660C0C"/>
<path d="M86.0581 71.1292L84.6366 74.4138H83.8817L82.4683 71.1292H83.2874L84.2833 73.4742L85.2952 71.1292H86.0581Z" fill="#660C0C"/>
<path d="M90.962 72.7192H91.6526V74.0524C91.476 74.1869 91.2692 74.2913 91.0343 74.3656C90.7973 74.4338 90.5624 74.47 90.3275 74.47C89.9842 74.47 89.677 74.3977 89.404 74.2532C89.1349 74.1086 88.9241 73.9078 88.7695 73.6508C88.6129 73.3898 88.5366 73.0967 88.5366 72.7754C88.5366 72.4502 88.6129 72.1571 88.7695 71.9001C88.9241 71.6431 89.1389 71.4423 89.412 71.2977C89.6851 71.1492 89.9942 71.0729 90.3436 71.0729C90.6267 71.0729 90.8857 71.1211 91.1226 71.2174C91.3575 71.3138 91.5563 71.4564 91.7169 71.6431L91.227 72.0928C90.9901 71.8479 90.707 71.7234 90.3757 71.7234C90.1669 71.7234 89.9782 71.7676 89.8136 71.8519C89.6529 71.9382 89.5264 72.0607 89.4361 72.2213C89.3498 72.3819 89.3076 72.5666 89.3076 72.7754C89.3076 72.9802 89.3498 73.1609 89.4361 73.3216C89.5264 73.4782 89.6529 73.6006 89.8136 73.691C89.9782 73.7773 90.1629 73.8195 90.3677 73.8195C90.5865 73.8195 90.7853 73.7753 90.962 73.683V72.7192Z" fill="#660C0C"/>
</svg>
